<?xml version="1.0" standalone="no"?>
<!DOCTYPE svg PUBLIC "-//W3C//DTD SVG 1.1//EN" "http://www.w3.org/Graphics/SVG/1.1/DTD/svg11.dtd" >
<svg xmlns="http://www.w3.org/2000/svg" xmlns:xlink="http://www.w3.org/1999/xlink" version="1.1">
<metadata>
Created by FontForge 20170731 at Fri Dec  3 02:57:44 1999
 By Aleksey,,,
(C) 1999 Ray Larabie - rlarabie@hotmail.com
</metadata>
<defs>
<font id="Sofachrome" horiz-adv-x="305" >
  <font-face 
    font-family="Sofachrome"
    font-weight="400"
    font-stretch="normal"
    units-per-em="1000"
    panose-1="0 0 4 0 0 0 0 0 0 0"
    ascent="800"
    descent="-200"
    x-height="686"
    cap-height="686"
    bbox="-19 -194 2801 836"
    underline-thickness="20"
    underline-position="-163"
    unicode-range="U+0020-2026"
  />
<missing-glyph horiz-adv-x="500" 
d="M63 0v800h375v-800h-375zM125 63h250v675h-250v-675z" />
    <glyph glyph-name=".notdef" horiz-adv-x="500" 
d="M63 0v800h375v-800h-375zM125 63h250v675h-250v-675z" />
    <glyph glyph-name=".null" horiz-adv-x="0" 
 />
    <glyph glyph-name="nonmarkingreturn" horiz-adv-x="472" 
 />
    <glyph glyph-name="space" unicode=" " horiz-adv-x="472" 
 />
    <glyph glyph-name="exclam" unicode="!" horiz-adv-x="489" 
d="M444 313q0 -13 -19 -13h-379q-19 0 -19 13v360q0 13 19 13h379q19 0 19 -13v-360zM444 51q0 -24 -28 -39q-22 -12 -49 -12h-263q-27 0 -49 12q-28 15 -28 39v133q0 25 28 39q22 12 49 12h263q27 0 49 -12q28 -14 28 -39v-133z" />
    <glyph glyph-name="quotedbl" unicode="&#x22;" horiz-adv-x="502" 
d="M472 669q0 -13 -37 -100q-4 -11 -13 -31q-5 -10 -19 -10h-67q-14 0 -18.5 10t-12.5 31q-38 87 -38 100q0 17 20 17h166q19 0 19 -17zM240 669q0 -13 -37 -100q-4 -11 -13 -31q-4 -10 -18 -10h-67q-14 0 -18.5 10t-13.5 31q-37 87 -37 100q0 17 19 17h166q19 0 19 -17z
" />
    <glyph glyph-name="numbersign" unicode="#" horiz-adv-x="759" 
d="M726 181q0 -12 -19 -12h-86v-76q0 -12 -20 -12h-87q-19 0 -19 12v76h-183v-76q0 -12 -19 -12h-88q-19 0 -19 12v76h-113q-19 0 -19 12v59q0 13 19 13h113v121h-113q-19 0 -19 13v58q0 13 19 13h113v58q0 13 19 13h88q19 0 19 -13v-58h183v58q0 13 19 13h87q20 0 20 -13
v-58h86q19 0 19 -13v-58q0 -13 -19 -13h-86v-121h86q19 0 19 -13v-59zM495 253v121h-183v-121h183z" />
    <glyph glyph-name="dollar" unicode="$" horiz-adv-x="670" 
d="M654 495q0 -13 -19 -13h-329l265 -145q77 -42 77 -100q0 -55 -68 -85q-51 -23 -115 -23h-15v-46q0 -13 -19 -13h-106q-19 0 -19 13v46h-242q-19 0 -19 12v93q0 13 19 13h300l-228 99q-114 49 -114 129q0 63 67 97q53 28 122 28h78v50q0 13 19 13h106q20 0 20 -13v-50h201
q19 0 19 -13v-92z" />
    <glyph glyph-name="percent" unicode="%" horiz-adv-x="788" 
d="M638 674q0 -2 -389 -666q-5 -8 -18 -8h-61q-20 0 -20 11q0 3 387 667q4 8 18 8h63q20 0 20 -12zM755 51q0 -22 -18.5 -36.5t-41.5 -14.5h-209q-23 0 -41.5 14.5t-18.5 36.5v190q0 22 18.5 36.5t41.5 14.5h209q23 0 41.5 -14.5t18.5 -36.5v-190zM353 448
q0 -23 -18.5 -37.5t-41.5 -14.5h-209q-23 0 -41.5 14.5t-18.5 37.5v189q0 23 18.5 37t41.5 14h209q23 0 41.5 -14t18.5 -37v-189zM651 123v36q0 22 -18 36.5t-41 14.5t-41 -14.5t-18 -36.5v-36q0 -22 18 -36.5t41 -14.5t41 14.5t18 36.5zM249 519v36q0 22 -18 36.5t-41 14.5
t-41 -14.5t-18 -36.5v-36q0 -22 18 -36.5t41 -14.5t41 14.5t18 36.5z" />
    <glyph glyph-name="ampersand" unicode="&#x26;" horiz-adv-x="1361" 
d="M1341 11q0 -11 -22 -11h-539q-8 0 -71 45q-23 -10 -70 -30q-30 -13 -112 -14q-37 -1 -195 -1q-210 0 -287 110q-27 38 -27 83q0 87 93 149q72 48 173 68q-101 59 -101 123q0 56 73 97q52 29 123 43q64 13 138 13h235q197 0 271 -87q26 -31 26 -68q0 -101 -172 -170
l85 -61q140 75 147 75h172q22 0 22 -11q0 -7 -10 -12l-240 -125l281 -205q7 -6 7 -11zM767 571q0 12 -28 20q-21 6 -38 6q-62 0 -62 -29q0 -19 38 -40q90 23 90 43zM627 117l-114 92q-83 -31 -83 -68q0 -25 35 -39q26 -11 56 -11q51 0 106 26z" />
    <glyph glyph-name="quotesingle" unicode="'" horiz-adv-x="270" 
d="M240 669q0 -13 -37 -100q-4 -11 -13 -31q-4 -10 -18 -10h-67q-14 0 -18.5 10t-13.5 31q-37 87 -37 100q0 17 19 17h166q19 0 19 -17z" />
    <glyph glyph-name="parenleft" unicode="(" horiz-adv-x="438" 
d="M404 -56q0 -13 -19 -13h-70q-138 0 -212 78q-72 75 -72 214q0 40 1 260q1 132 75 201.5t208 69.5h70q19 0 19 -12v-50q0 -12 -26 -13q7 0 -35 0q-170 0 -170 -157v-331q0 -82 44.5 -133t125.5 -51q42 0 35 0q26 -1 26 -13v-50z" />
    <glyph glyph-name="parenright" unicode=")" horiz-adv-x="430" 
d="M405 223q0 -139 -72 -214q-74 -78 -212 -78h-70q-20 0 -20 13v50q0 12 27 13q-8 0 35 0q80 0 126 52q43 50 43 132v331q0 157 -169 157q-43 0 -35 0q-27 1 -27 13v50q0 12 20 12h70q133 0 207.5 -69.5t74.5 -201.5z" />
    <glyph glyph-name="asterisk" unicode="*" horiz-adv-x="887" 
d="M864 334q0 -7 -14 -11l-197 -60q54 -143 54 -146q0 -11 -16 -11q-6 0 -13 2l-193 65l-131 -114q-8 -7 -17 -7q-14 0 -17 12l-44 141l-217 -3q-21 0 -21 11q0 5 6 10l139 111l-139 111q-6 5 -6 11q0 11 21 10l217 -3l44 142q3 12 17 12q9 0 17 -7l131 -115l193 66
q7 2 13 2q16 0 16 -12q0 -2 -54 -145l197 -60q14 -4 14 -12z" />
    <glyph glyph-name="plus" unicode="+" horiz-adv-x="427" 
d="M389 267q0 -13 -20 -13h-67v-46q0 -13 -20 -13h-139q-19 0 -19 13v46h-67q-19 0 -19 13v93q0 13 19 13h67v43q0 13 19 13h139q20 0 20 -13v-43h67q20 0 20 -13v-93z" />
    <glyph glyph-name="comma" unicode="," horiz-adv-x="295" 
d="M268 107q0 -47 -17 -82q-10 -21 -46 -69q-10 -16 -32 -44q-7 -8 -18 -8h-55q-19 0 -19 15q0 10 13 40q10 20 19 41h-49q-20 0 -33 15.5t-13 35.5v133q0 20 13 35.5t33 15.5h158q20 0 33 -15.5t13 -35.5v-77z" />
    <glyph glyph-name="hyphen" unicode="-" horiz-adv-x="389" 
d="M350 267q0 -13 -19 -13h-261q-19 0 -19 13v93q0 13 19 13h261q19 0 19 -13v-93z" />
    <glyph glyph-name="hyphen" unicode="&#x2010;" horiz-adv-x="389" 
d="M350 267q0 -13 -19 -13h-261q-19 0 -19 13v93q0 13 19 13h261q19 0 19 -13v-93z" />
    <glyph glyph-name="period" unicode="." horiz-adv-x="295" 
d="M268 51q0 -20 -13 -35.5t-33 -15.5h-158q-20 0 -33 15.5t-13 35.5v133q0 20 13 35.5t33 15.5h158q20 0 33 -15.5t13 -35.5v-133z" />
    <glyph glyph-name="slash" unicode="/" horiz-adv-x="686" 
d="M660 675q0 -4 -2 -8l-498 -660q-5 -7 -17 -7h-89q-20 0 -20 11q0 4 3 8l494 660q5 7 17 7h92q20 0 20 -11z" />
    <glyph glyph-name="zero" unicode="0" horiz-adv-x="1233" 
d="M1219 343q0 -147 -92.5 -245t-238.5 -98h-541q-147 0 -239 98t-92 245q0 150 91 246.5t240 96.5h541q149 0 240 -96.5t91 -246.5zM772 302v109q0 81 -19 113q-26 44 -99 44h-92q-70 0 -94 -47q-16 -32 -16 -110v-109q0 -83 15 -122q25 -62 95 -62h92q73 0 100 60
q18 39 18 124z" />
    <glyph glyph-name="one" unicode="1" horiz-adv-x="579" 
d="M543 568v-555q0 -13 -19 -13h-378q-20 0 -20 13v555h-84q-19 0 -19 12v93q0 13 19 13h344q67 0 108 -26q49 -30 49 -92z" />
    <glyph glyph-name="two" unicode="2" horiz-adv-x="1212" 
d="M1192 503q0 -42 -22 -80q-63 -109 -240 -109h-266q-92 0 -135 -12q-80 -23 -80 -91v-93h697q20 0 20 -13v-92q0 -13 -20 -13h-1095q-19 0 -19 13v198q0 126 111 179q74 34 222 41q37 2 84 2h215q38 0 68 15q37 19 37 53q0 35 -37 53q-30 14 -68 14h-613q-19 0 -19 12v93
q0 13 19 13h904q156 0 215 -103q22 -38 22 -80z" />
    <glyph glyph-name="three" unicode="3" horiz-adv-x="1158" 
d="M1138 502q0 -88 -95 -140q89 -63 89 -161q0 -91 -72 -148q-67 -52 -160 -52h-840q-19 0 -19 12v93q0 13 19 13h549q43 0 71 25.5t28 68.5q0 42 -28 69.5t-71 27.5h-549q-19 0 -19 12v93q0 13 19 13h549q39 0 68 15q36 19 36 54t-36 55q-30 16 -68 16h-549q-19 0 -19 13
v93q0 13 19 13h815q172 0 240 -107q23 -37 23 -78z" />
    <glyph glyph-name="four" unicode="4" horiz-adv-x="1184" 
d="M1167 162q0 -13 -19 -13h-81v-136q0 -13 -19 -13h-378q-20 0 -20 13v136h-607q-20 0 -20 13v79q2 3 5 8l565 432q5 5 14 5h441q19 0 19 -13v-415h81q19 0 19 -13v-83zM650 258v302l-381 -302h381z" />
    <glyph glyph-name="five" unicode="5" horiz-adv-x="1239" 
d="M1207 211q0 -96 -71 -155q-67 -55 -165 -55h-905q-19 0 -19 12v93q0 13 19 13h614q43 0 71 25.5t28 68.5q0 42 -28.5 69.5t-70.5 27.5h-614q-19 0 -19 12v352q0 13 19 13h1096q19 0 19 -13v-93q0 -13 -19 -13h-698v-140h481q107 0 181 -54q81 -60 81 -163z" />
    <glyph glyph-name="six" unicode="6" horiz-adv-x="1241" 
d="M1220 206q0 -96 -75 -153q-68 -52 -168 -52h-705q-152 0 -214 117q-22 42 -22 86v303q0 61 50 107q43 40 107 58q49 15 105 15h845q19 0 19 -13v-93q0 -13 -19 -13h-600q-107 0 -107 -76v-64h515q176 0 244 -124q25 -46 25 -98zM790 213q0 43 -30 70t-74 27h-247v-91
q0 -46 29 -73t75 -27h143q44 0 74 25.5t30 68.5z" />
    <glyph glyph-name="seven" unicode="7" horiz-adv-x="1042" 
d="M1026 605l-3 -6l-449 -592q-6 -7 -18 -7h-501q-20 0 -20 11q0 4 3 8l409 549h-404q-19 0 -19 12v93q0 13 19 13h963q20 0 20 -13v-68z" />
    <glyph glyph-name="eight" unicode="8" horiz-adv-x="1225" 
d="M1205 502q0 -88 -96 -140q90 -63 90 -161q0 -91 -72 -148q-67 -52 -160 -52h-705q-93 0 -159 52q-72 57 -72 148q0 98 89 161q-96 52 -96 140q0 40 23 77q35 55 106 83q61 25 135 25h653q74 0 135 -25q72 -28 106 -83q23 -37 23 -77zM780 497q0 35 -36 55q-30 16 -68 16
h-143q-38 0 -68 -16q-36 -20 -36 -55t36 -54q29 -15 68 -15h143q38 0 67 15q37 19 37 54zM775 213q0 42 -28.5 69.5t-70.5 27.5h-143q-43 0 -71 -27.5t-28 -69.5q0 -43 28 -68.5t71 -25.5h143q43 0 71 25.5t28 68.5z" />
    <glyph glyph-name="nine" unicode="9" horiz-adv-x="1236" 
d="M1208 179q0 -60 -50 -107q-43 -39 -107 -58q-49 -14 -105 -14h-845q-19 0 -19 13v92q0 13 19 13h600q107 0 107 76v65h-515q-176 0 -244 123q-25 46 -25 98q0 97 75 154q68 52 168 52h705q152 0 214 -118q22 -41 22 -85v-304zM805 377v91q0 45 -29 72.5t-75 27.5h-143
q-44 0 -74 -25.5t-30 -68.5q0 -44 30 -70.5t74 -26.5h247z" />
    <glyph glyph-name="colon" unicode=":" horiz-adv-x="316" 
d="M277 352q0 -21 -13 -36.5t-33 -15.5h-157q-20 0 -33.5 15.5t-13.5 36.5v132q0 20 13.5 36t33.5 16h157q20 0 33 -16t13 -36v-132zM277 51q0 -20 -13 -35.5t-33 -15.5h-157q-20 0 -33.5 15.5t-13.5 35.5v133q0 20 13.5 35.5t33.5 15.5h157q20 0 33 -15.5t13 -35.5v-133z
" />
    <glyph glyph-name="semicolon" unicode=";" horiz-adv-x="316" 
d="M277 352q0 -21 -13 -36.5t-33 -15.5h-157q-20 0 -33.5 15.5t-13.5 36.5v132q0 20 13.5 36t33.5 16h157q20 0 33 -16t13 -36v-132zM277 107q0 -47 -16 -82q-10 -21 -47 -69q-10 -16 -32 -44q-6 -8 -17 -8h-56q-19 0 -19 15q0 10 14 40q9 20 19 41h-49q-20 0 -33.5 15.5
t-13.5 35.5v133q0 20 13.5 35.5t33.5 15.5h157q20 0 33 -15.5t13 -35.5v-77z" />
    <glyph glyph-name="less" unicode="&#x3c;" horiz-adv-x="616" 
d="M597 472q0 -4 -91 -133q91 -126 91 -130q0 -11 -17 -11q-5 0 -10 1q-174 41 -271 63q-69 14 -205 46q-70 19 -70 31q0 13 70 32q32 8 205 47q96 22 271 64q6 1 10 1q17 0 17 -11z" />
    <glyph glyph-name="equal" unicode="=" horiz-adv-x="501" 
d="M469 353q0 -13 -19 -13h-377q-19 0 -19 13v92q0 13 19 13h377q19 0 19 -13v-92zM469 181q0 -12 -19 -12h-377q-19 0 -19 12v93q0 13 19 13h377q19 0 19 -13v-93z" />
    <glyph glyph-name="greater" unicode="&#x3e;" horiz-adv-x="647" 
d="M628 339q0 -12 -70 -31q-33 -8 -206 -46q-97 -22 -270 -63q-6 -1 -11 -1q-16 0 -16 11q0 4 90 130q-91 129 -91 133q0 11 17 11q5 0 11 -1q175 -42 270 -64q69 -14 206 -47q70 -19 70 -32z" />
    <glyph glyph-name="question" unicode="?" horiz-adv-x="1206" 
d="M1176 503q0 -42 -22 -80q-63 -109 -240 -109h-202q-43 0 -66 -8q-4 -1 -16.5 -9.5t-19.5 -8.5h-381q-20 0 -20 14q0 17 17 39q64 92 322 92h100q38 0 68 15q37 19 37 53q0 35 -38 53q-29 14 -67 14h-613q-20 0 -20 12v93q0 13 20 13h904q155 0 215 -103q22 -38 22 -80z
M625 51q0 -24 -27 -39q-23 -12 -50 -12h-262q-27 0 -50 12q-28 15 -28 39v133q0 25 28 39q23 12 50 12h262q27 0 50 -12q27 -14 27 -39v-133z" />
    <glyph glyph-name="at" unicode="@" horiz-adv-x="1393" 
d="M1379 343q0 -147 -92.5 -245t-239.5 -98h-687q-19 0 -19 13v92q0 13 19 13h454q73 0 100 60q18 40 18 124v109q0 81 -19 113q-26 44 -99 44h-486q-73 0 -99 -44q-18 -32 -18 -113v-193q0 -13 -20 -13h-143q-20 0 -20 13v203q0 137 97 205q85 60 227 60h695
q150 0 241 -96.5t91 -246.5zM789 292q0 -35 -28 -57t-65 -22h-275q-40 0 -66 20q-29 22 -29 60q0 41 33 65q29 22 72 22h201v25q0 30 -42 30h-223q-15 0 -18 11q-1 2 -1 22q0 13 19 13h319q37 0 67 -16q36 -20 36 -54v-119zM631 298v36h-96q-41 0 -41 -38q0 -37 41 -37h55
q41 0 41 39z" />
    <glyph glyph-name="A" unicode="A" horiz-adv-x="1682" 
d="M1672 11q0 -11 -21 -11h-470q-9 0 -15 5l-506 440l-367 -327h558q19 0 19 -13v-92q0 -13 -19 -13h-807q-21 0 -21 11q0 5 5 10l754 660q5 5 15 5h112q10 0 16 -5l742 -660q5 -5 5 -10z" />
    <glyph glyph-name="B" unicode="B" horiz-adv-x="1216" 
d="M1183 207q0 -92 -73 -151q-69 -56 -163 -56h-904q-20 0 -20 13v660q0 13 20 13h904q150 0 212 -100q23 -36 23 -76q0 -88 -97 -141q98 -59 98 -162zM761 501q0 35 -38 53q-29 14 -67 14h-216v-450h216q43 0 70.5 27t27.5 70t-27.5 71t-70.5 28h-136q-19 0 -19 13v93
q0 13 19 13h136q38 0 67 15q38 19 38 53z" />
    <glyph glyph-name="C" unicode="C" horiz-adv-x="1107" 
d="M1080 13q0 -13 -19 -13h-713q-146 0 -239 99q-92 96 -92 244q0 150 91 246.5t240 96.5h713q19 0 19 -13v-93q0 -12 -19 -12h-479q-73 0 -99 -44q-19 -32 -19 -113v-109q0 -84 18 -124q27 -60 100 -60h479q19 0 19 -13v-92z" />
    <glyph glyph-name="D" unicode="D" horiz-adv-x="1240" 
d="M1225 343q0 -148 -91 -244q-93 -99 -240 -99h-834q-19 0 -19 13v660q0 13 19 13h834q149 0 240 -96.5t91 -246.5zM778 302v109q0 81 -19 113q-25 44 -98 44h-203v-450h203q73 0 99 60q18 40 18 124z" />
    <glyph glyph-name="E" unicode="E" horiz-adv-x="1122" 
d="M1088 327q0 -13 -19 -13h-505q-20 0 -20 13v93q0 13 20 13h505q19 0 19 -13v-93zM1088 13q0 -13 -19 -13h-713q-147 0 -240 99q-91 96 -91 244q0 150 91 246.5t240 96.5h713q19 0 19 -13v-93q0 -12 -19 -12h-479q-74 0 -99 -44q-19 -32 -19 -113v-109q0 -84 18 -124
q27 -60 100 -60h479q19 0 19 -13v-92z" />
    <glyph glyph-name="F" unicode="F" horiz-adv-x="1136" 
d="M1093 327q0 -13 -19 -13h-505q-20 0 -20 13v93q0 13 20 13h505q19 0 19 -13v-93zM1093 580q0 -12 -19 -12h-479q-73 0 -99 -44q-19 -32 -19 -113v-398q0 -13 -19 -13h-401q-19 0 -19 13v348q0 141 91 233t232 92h713q19 0 19 -13v-93z" />
    <glyph glyph-name="G" unicode="G" horiz-adv-x="1171" 
d="M1130 13q0 -13 -20 -13h-749q-146 0 -239 99q-91 96 -91 244q0 150 90.5 246.5t239.5 96.5h675q19 0 19 -13v-93q0 -12 -19 -12h-441q-73 0 -99 -44q-19 -32 -19 -113v-109q0 -85 18 -124q27 -60 100 -60h118v322q0 13 19 13h378q20 0 20 -13v-427z" />
    <glyph glyph-name="H" unicode="H" horiz-adv-x="1226" 
d="M1195 13q0 -13 -20 -13h-378q-19 0 -19 13v301h-321v-301q0 -13 -19 -13h-378q-20 0 -20 13v660q0 13 20 13h378q19 0 19 -13v-240h321v240q0 13 19 13h378q20 0 20 -13v-660z" />
    <glyph glyph-name="I" unicode="I" horiz-adv-x="489" 
d="M455 13q0 -13 -19 -13h-378q-20 0 -20 13v660q0 13 20 13h378q19 0 19 -13v-660z" />
    <glyph glyph-name="J" unicode="J" horiz-adv-x="1058" 
d="M1026 324q0 -141 -91 -232.5t-232 -91.5h-662q-19 0 -19 13v92q0 13 19 13h428q74 0 99 44q19 32 19 113v398q0 13 19 13h401q19 0 19 -13v-349z" />
    <glyph glyph-name="K" unicode="K" horiz-adv-x="1331" 
d="M1330 11q0 -11 -21 -11h-400q-10 0 -15 5l-388 339v82q0 7 7 10l459 247q5 3 12 3h254q22 0 22 -11q0 -7 -10 -12l-418 -226l492 -416q6 -5 6 -10zM446 13q0 -13 -19 -13h-379q-19 0 -19 13v660q0 13 19 13h379q19 0 19 -13v-660z" />
    <glyph glyph-name="L" unicode="L" horiz-adv-x="1066" 
d="M1040 13q0 -13 -19 -13h-661q-141 0 -232.5 91.5t-91.5 232.5v349q0 13 19 13h401q19 0 19 -13v-398q0 -81 19 -113q26 -44 99 -44h428q19 0 19 -13v-92z" />
    <glyph glyph-name="M" unicode="M" horiz-adv-x="1485" 
d="M1432 13q0 -13 -19 -13h-379q-19 0 -19 13v268l-327 -276q-6 -5 -82 -5q-8 0 -14 4l-366 277v-268q0 -13 -19 -13h-145q-19 0 -19 13v660q0 13 19 13h155q9 0 15 -5l495 -442l532 442q6 5 15 5h139q19 0 19 -13v-660z" />
    <glyph glyph-name="N" unicode="N" horiz-adv-x="1368" 
d="M1332 13q0 -13 -19 -13h-169q-24 0 -70 15l-850 275v-277q0 -13 -19 -13h-145q-20 0 -20 13v660q0 13 20 13h162q20 0 60 -13l866 -282v282q0 13 20 13h145q19 0 19 -13v-660z" />
    <glyph glyph-name="O" unicode="O" horiz-adv-x="1233" 
d="M1221 343q0 -147 -92 -245t-239 -98h-541q-146 0 -238.5 98t-92.5 245q0 150 91 246.5t240 96.5h541q149 0 240 -96.5t91 -246.5zM775 302v109q0 81 -19 113q-26 44 -99 44h-93q-69 0 -93 -47q-17 -32 -17 -110v-109q0 -83 16 -122q25 -62 94 -62h93q73 0 100 60
q18 39 18 124z" />
    <glyph glyph-name="P" unicode="P" horiz-adv-x="1206" 
d="M1191 503q0 -42 -22 -80q-63 -109 -240 -109h-401q-20 0 -20 13v93q0 13 20 13h135q38 0 68 15q37 19 37 53q0 35 -37 53q-29 14 -68 14h-215v-555q0 -13 -19 -13h-379q-19 0 -19 13v660q0 13 19 13h905q157 0 216 -105q20 -37 20 -78z" />
    <glyph glyph-name="Q" unicode="Q" horiz-adv-x="1233" 
d="M1223 343q0 -148 -91 -244q-93 -99 -240 -99h-130v-105q0 -13 -19 -13h-255q-19 0 -19 13v105h-118q-147 0 -240 99q-91 96 -91 244q0 150 91 246.5t240 96.5h541q149 0 240 -96.5t91 -246.5zM776 302v109q0 81 -19 113q-25 44 -98 44h-93q-70 0 -93 -47
q-17 -32 -17 -110v-109q0 -83 16 -122q24 -62 94 -62h93q73 0 99 60q18 39 18 124z" />
    <glyph glyph-name="R" unicode="R" horiz-adv-x="1305" 
d="M1328 11q0 -11 -21 -11h-400q-10 0 -15 5l-388 339v76q0 13 19 13h136q38 0 68 15q37 19 37 53q0 35 -37 53q-29 14 -68 14h-215v-555q0 -13 -20 -13h-378q-19 0 -19 13v660q0 13 19 13h905q152 0 211 -104q20 -36 20 -76q0 -79 -70 -131q-58 -44 -144 -58l354 -296
q6 -5 6 -10z" />
    <glyph glyph-name="S" unicode="S" horiz-adv-x="1057" 
d="M1035 135q0 -80 -147 -114q-89 -21 -206 -21h-606q-20 0 -20 13v92q0 13 20 13h466l-369 228q-149 91 -149 181q0 58 61 99q46 32 113 48q54 12 114 12h643q19 0 19 -13v-93q0 -12 -19 -12h-471l368 -231q183 -114 183 -202z" />
    <glyph glyph-name="T" unicode="T" horiz-adv-x="1101" 
d="M1078 580q0 -12 -19 -12h-304v-555q0 -13 -19 -13h-379q-19 0 -19 13v555h-294q-19 0 -19 12v93q0 13 19 13h1015q19 0 19 -13v-93z" />
    <glyph glyph-name="U" unicode="U" horiz-adv-x="1254" 
d="M1221 349q0 -148 -87 -246q-90 -103 -237 -103h-541q-147 0 -237 103q-87 98 -87 246v324q0 13 20 13h390q19 0 19 -13v-371q0 -84 16 -122q24 -62 94 -62h331q144 0 144 244v311q0 13 19 13h137q19 0 19 -13v-324z" />
    <glyph glyph-name="V" unicode="V" horiz-adv-x="1705" 
d="M1674 676q0 -5 -6 -10l-753 -660q-6 -5 -16 -5h-112q-10 0 -15 5l-742 660q-6 5 -6 10q0 11 21 11h470q10 0 15 -5l507 -440l501 440q6 5 16 5h99q21 0 21 -11z" />
    <glyph glyph-name="W" unicode="W" horiz-adv-x="2850" 
d="M2801 676q0 -5 -5 -10l-754 -660q-6 -5 -15 -5h-112q-10 0 -16 5l-481 434l-495 -434q-6 -5 -15 -5h-112q-10 0 -16 5l-742 660q-5 5 -5 10q0 11 21 11h470q9 0 15 -5l506 -440l502 440q6 5 15 5h80q10 0 16 -5l506 -440l502 440q5 5 15 5h99q21 0 21 -11z" />
    <glyph glyph-name="X" unicode="X" horiz-adv-x="1306" 
d="M1285 675q0 -5 -6 -10l-364 -323l361 -321q6 -5 6 -10q0 -11 -21 -11h-470q-10 0 -16 5l-289 257l-290 -257q-5 -5 -15 -5h-135q-21 0 -21 11q0 5 5 10l363 323l-362 321q-6 5 -6 10q0 11 21 11h473q9 0 15 -5l288 -257l288 257q6 5 16 5h137q22 0 22 -11z" />
    <glyph glyph-name="Y" unicode="Y" horiz-adv-x="1284" 
d="M1277 675q0 -5 -5 -10l-415 -366v-286q0 -13 -19 -13h-378q-20 0 -20 13v281l-417 371q-5 5 -5 10q0 11 21 11h472q10 0 16 -5l288 -257l288 257q6 5 15 5h138q21 0 21 -11z" />
    <glyph glyph-name="Z" unicode="Z" horiz-adv-x="1066" 
d="M1031 13q0 -13 -20 -13h-963q-19 0 -19 13v102q2 3 3 6l420 447h-404q-19 0 -19 12v93q0 13 19 13h963q20 0 20 -13v-102l-3 -7l-428 -446h411q20 0 20 -13v-92z" />
    <glyph glyph-name="backslash" unicode="\" horiz-adv-x="687" 
d="M655 11q0 -11 -20 -11h-89q-12 0 -18 7l-497 660q-3 4 -3 8q0 11 20 11h92q12 0 18 -7l494 -660q3 -4 3 -8z" />
    <glyph glyph-name="underscore" unicode="_" horiz-adv-x="389" 
d="M420 -173q0 -13 -19 -13h-401q-19 0 -19 13v93q0 13 19 13h401q19 0 19 -13v-93z" />
    <glyph glyph-name="grave" unicode="`" horiz-adv-x="509" 
d="M724 695h-82l-108 110h109z" />
    <glyph glyph-name="a" unicode="a" horiz-adv-x="1682" 
d="M1672 11q0 -11 -21 -11h-470q-9 0 -15 5l-506 440l-367 -327h558q19 0 19 -13v-92q0 -13 -19 -13h-807q-21 0 -21 11q0 5 5 10l754 660q5 5 15 5h112q10 0 16 -5l742 -660q5 -5 5 -10z" />
    <glyph glyph-name="b" unicode="b" horiz-adv-x="1216" 
d="M1183 207q0 -92 -73 -151q-69 -56 -163 -56h-904q-20 0 -20 13v660q0 13 20 13h904q150 0 212 -100q23 -36 23 -76q0 -88 -97 -141q98 -59 98 -162zM761 501q0 35 -38 53q-29 14 -67 14h-216v-450h216q43 0 70.5 27t27.5 70t-27.5 71t-70.5 28h-136q-19 0 -19 13v93
q0 13 19 13h136q38 0 67 15q38 19 38 53z" />
    <glyph glyph-name="c" unicode="c" horiz-adv-x="1107" 
d="M1080 13q0 -13 -19 -13h-713q-146 0 -239 99q-92 96 -92 244q0 150 91 246.5t240 96.5h713q19 0 19 -13v-93q0 -12 -19 -12h-479q-73 0 -99 -44q-19 -32 -19 -113v-109q0 -84 18 -124q27 -60 100 -60h479q19 0 19 -13v-92z" />
    <glyph glyph-name="d" unicode="d" horiz-adv-x="1240" 
d="M1225 343q0 -148 -91 -244q-93 -99 -240 -99h-834q-19 0 -19 13v660q0 13 19 13h834q149 0 240 -96.5t91 -246.5zM778 302v109q0 81 -19 113q-25 44 -98 44h-203v-450h203q73 0 99 60q18 40 18 124z" />
    <glyph glyph-name="e" unicode="e" horiz-adv-x="1122" 
d="M1088 327q0 -13 -19 -13h-505q-20 0 -20 13v93q0 13 20 13h505q19 0 19 -13v-93zM1088 13q0 -13 -19 -13h-713q-147 0 -240 99q-91 96 -91 244q0 150 91 246.5t240 96.5h713q19 0 19 -13v-93q0 -12 -19 -12h-479q-74 0 -99 -44q-19 -32 -19 -113v-109q0 -84 18 -124
q27 -60 100 -60h479q19 0 19 -13v-92z" />
    <glyph glyph-name="f" unicode="f" horiz-adv-x="1136" 
d="M1093 327q0 -13 -19 -13h-505q-20 0 -20 13v93q0 13 20 13h505q19 0 19 -13v-93zM1093 580q0 -12 -19 -12h-479q-73 0 -99 -44q-19 -32 -19 -113v-398q0 -13 -19 -13h-401q-19 0 -19 13v348q0 141 91 233t232 92h713q19 0 19 -13v-93z" />
    <glyph glyph-name="g" unicode="g" horiz-adv-x="1171" 
d="M1130 13q0 -13 -20 -13h-749q-146 0 -239 99q-91 96 -91 244q0 150 90.5 246.5t239.5 96.5h675q19 0 19 -13v-93q0 -12 -19 -12h-441q-73 0 -99 -44q-19 -32 -19 -113v-109q0 -85 18 -124q27 -60 100 -60h118v322q0 13 19 13h378q20 0 20 -13v-427z" />
    <glyph glyph-name="h" unicode="h" horiz-adv-x="1226" 
d="M1195 13q0 -13 -20 -13h-378q-19 0 -19 13v301h-321v-301q0 -13 -19 -13h-378q-20 0 -20 13v660q0 13 20 13h378q19 0 19 -13v-240h321v240q0 13 19 13h378q20 0 20 -13v-660z" />
    <glyph glyph-name="i" unicode="i" horiz-adv-x="489" 
d="M455 13q0 -13 -19 -13h-378q-20 0 -20 13v660q0 13 20 13h378q19 0 19 -13v-660z" />
    <glyph glyph-name="j" unicode="j" horiz-adv-x="1058" 
d="M1026 324q0 -141 -91 -232.5t-232 -91.5h-662q-19 0 -19 13v92q0 13 19 13h428q74 0 99 44q19 32 19 113v398q0 13 19 13h401q19 0 19 -13v-349z" />
    <glyph glyph-name="k" unicode="k" horiz-adv-x="1331" 
d="M1330 11q0 -11 -21 -11h-400q-10 0 -15 5l-388 339v82q0 7 7 10l459 247q5 3 12 3h254q22 0 22 -11q0 -7 -10 -12l-418 -226l492 -416q6 -5 6 -10zM446 13q0 -13 -19 -13h-379q-19 0 -19 13v660q0 13 19 13h379q19 0 19 -13v-660z" />
    <glyph glyph-name="l" unicode="l" horiz-adv-x="1066" 
d="M1040 13q0 -13 -19 -13h-661q-141 0 -232.5 91.5t-91.5 232.5v349q0 13 19 13h401q19 0 19 -13v-398q0 -81 19 -113q26 -44 99 -44h428q19 0 19 -13v-92z" />
    <glyph glyph-name="m" unicode="m" horiz-adv-x="1485" 
d="M1432 13q0 -13 -19 -13h-379q-19 0 -19 13v268l-327 -276q-6 -5 -82 -5q-8 0 -14 4l-366 277v-268q0 -13 -19 -13h-145q-19 0 -19 13v660q0 13 19 13h155q9 0 15 -5l495 -442l532 442q6 5 15 5h139q19 0 19 -13v-660z" />
    <glyph glyph-name="n" unicode="n" horiz-adv-x="1368" 
d="M1332 13q0 -13 -19 -13h-169q-24 0 -70 15l-850 275v-277q0 -13 -19 -13h-145q-20 0 -20 13v660q0 13 20 13h162q20 0 60 -13l866 -282v282q0 13 20 13h145q19 0 19 -13v-660z" />
    <glyph glyph-name="o" unicode="o" horiz-adv-x="1233" 
d="M1221 343q0 -147 -92 -245t-239 -98h-541q-146 0 -238.5 98t-92.5 245q0 150 91 246.5t240 96.5h541q149 0 240 -96.5t91 -246.5zM775 302v109q0 81 -19 113q-26 44 -99 44h-93q-69 0 -93 -47q-17 -32 -17 -110v-109q0 -83 16 -122q25 -62 94 -62h93q73 0 100 60
q18 39 18 124z" />
    <glyph glyph-name="p" unicode="p" horiz-adv-x="1206" 
d="M1191 503q0 -42 -22 -80q-63 -109 -240 -109h-401q-20 0 -20 13v93q0 13 20 13h135q38 0 68 15q37 19 37 53q0 35 -37 53q-29 14 -68 14h-215v-555q0 -13 -19 -13h-379q-19 0 -19 13v660q0 13 19 13h905q157 0 216 -105q20 -37 20 -78z" />
    <glyph glyph-name="q" unicode="q" horiz-adv-x="1233" 
d="M1223 343q0 -148 -91 -244q-93 -99 -240 -99h-130v-105q0 -13 -19 -13h-255q-19 0 -19 13v105h-118q-147 0 -240 99q-91 96 -91 244q0 150 91 246.5t240 96.5h541q149 0 240 -96.5t91 -246.5zM776 302v109q0 81 -19 113q-25 44 -98 44h-93q-70 0 -93 -47
q-17 -32 -17 -110v-109q0 -83 16 -122q24 -62 94 -62h93q73 0 99 60q18 39 18 124z" />
    <glyph glyph-name="r" unicode="r" horiz-adv-x="1305" 
d="M1328 11q0 -11 -21 -11h-400q-10 0 -15 5l-388 339v76q0 13 19 13h136q38 0 68 15q37 19 37 53q0 35 -37 53q-29 14 -68 14h-215v-555q0 -13 -20 -13h-378q-19 0 -19 13v660q0 13 19 13h905q152 0 211 -104q20 -36 20 -76q0 -79 -70 -131q-58 -44 -144 -58l354 -296
q6 -5 6 -10z" />
    <glyph glyph-name="s" unicode="s" horiz-adv-x="1057" 
d="M1035 135q0 -80 -147 -114q-89 -21 -206 -21h-606q-20 0 -20 13v92q0 13 20 13h466l-369 228q-149 91 -149 181q0 58 61 99q46 32 113 48q54 12 114 12h643q19 0 19 -13v-93q0 -12 -19 -12h-471l368 -231q183 -114 183 -202z" />
    <glyph glyph-name="t" unicode="t" horiz-adv-x="1101" 
d="M1078 580q0 -12 -19 -12h-304v-555q0 -13 -19 -13h-379q-19 0 -19 13v555h-294q-19 0 -19 12v93q0 13 19 13h1015q19 0 19 -13v-93z" />
    <glyph glyph-name="u" unicode="u" horiz-adv-x="1254" 
d="M1221 349q0 -148 -87 -246q-90 -103 -237 -103h-541q-147 0 -237 103q-87 98 -87 246v324q0 13 20 13h390q19 0 19 -13v-371q0 -84 16 -122q24 -62 94 -62h331q144 0 144 244v311q0 13 19 13h137q19 0 19 -13v-324z" />
    <glyph glyph-name="v" unicode="v" horiz-adv-x="1705" 
d="M1674 676q0 -5 -6 -10l-753 -660q-6 -5 -16 -5h-112q-10 0 -15 5l-742 660q-6 5 -6 10q0 11 21 11h470q10 0 15 -5l507 -440l501 440q6 5 16 5h99q21 0 21 -11z" />
    <glyph glyph-name="w" unicode="w" horiz-adv-x="2850" 
d="M2801 676q0 -5 -5 -10l-754 -660q-6 -5 -15 -5h-112q-10 0 -16 5l-481 434l-495 -434q-6 -5 -15 -5h-112q-10 0 -16 5l-742 660q-5 5 -5 10q0 11 21 11h470q9 0 15 -5l506 -440l502 440q6 5 15 5h80q10 0 16 -5l506 -440l502 440q5 5 15 5h99q21 0 21 -11z" />
    <glyph glyph-name="x" unicode="x" horiz-adv-x="1306" 
d="M1285 675q0 -5 -6 -10l-364 -323l361 -321q6 -5 6 -10q0 -11 -21 -11h-470q-10 0 -16 5l-289 257l-290 -257q-5 -5 -15 -5h-135q-21 0 -21 11q0 5 5 10l363 323l-362 321q-6 5 -6 10q0 11 21 11h473q9 0 15 -5l288 -257l288 257q6 5 16 5h137q22 0 22 -11z" />
    <glyph glyph-name="y" unicode="y" horiz-adv-x="1284" 
d="M1277 675q0 -5 -5 -10l-415 -366v-286q0 -13 -19 -13h-378q-20 0 -20 13v281l-417 371q-5 5 -5 10q0 11 21 11h472q10 0 16 -5l288 -257l288 257q6 5 15 5h138q21 0 21 -11z" />
    <glyph glyph-name="z" unicode="z" horiz-adv-x="1066" 
d="M1031 13q0 -13 -20 -13h-963q-19 0 -19 13v102q2 3 3 6l420 447h-404q-19 0 -19 12v93q0 13 19 13h963q20 0 20 -13v-102l-3 -7l-428 -446h411q20 0 20 -13v-92z" />
    <glyph glyph-name="exclamdown" unicode="&#xa1;" horiz-adv-x="489" 
d="M444 179q0 13 -19 13h-379q-19 0 -19 -13v-360q0 -13 19 -13h379q19 0 19 13v360zM444 441q0 24 -28 39q-22 12 -49 12h-263q-27 0 -49 -12q-28 -15 -28 -39v-133q0 -25 28 -39q22 -12 49 -12h263q27 0 49 12q28 14 28 39v133z" />
    <glyph glyph-name="cent" unicode="&#xa2;" horiz-adv-x="1000" 
 />
    <glyph glyph-name="sterling" unicode="&#xa3;" 
 />
    <glyph glyph-name="currency" unicode="&#xa4;" horiz-adv-x="1121" 
d="M1080 13q0 -13 -19 -13h-713q-146 0 -239 99q-92 96 -92 244q0 150 91 246.5t240 96.5h713q19 0 19 -13v-93q0 -12 -19 -12h-479q-73 0 -99 -44q-19 -32 -19 -113v-109q0 -84 18 -124q27 -60 100 -60h479q19 0 19 -13v-92zM719 373q0 -13 -19 -13h-377q-19 0 -19 13v92
q0 13 19 13h377q19 0 19 -13v-92zM719 201q0 -12 -19 -12h-377q-19 0 -19 12v93q0 13 19 13h377q19 0 19 -13v-93z" />
    <glyph glyph-name="yen" unicode="&#xa5;" horiz-adv-x="1238" 
d="M994 174q0 -8 -33 -8h-656q-33 0 -33 8v59q0 8 33 8h656q33 0 33 -8v-59zM994 65q0 -8 -33 -8h-656q-33 0 -33 8v59q0 8 33 8h656q33 0 33 -8v-59zM1257 675q0 -5 -5 -10l-415 -366v-286q0 -13 -19 -13h-378q-20 0 -20 13v281l-417 371q-5 5 -5 10q0 11 21 11h472
q10 0 16 -5l288 -257l288 257q6 5 15 5h138q21 0 21 -11z" />
    <glyph glyph-name="brokenbar" unicode="&#xa6;" horiz-adv-x="1000" 
 />
    <glyph glyph-name="section" unicode="&#xa7;" 
 />
    <glyph glyph-name="dieresis" unicode="&#xa8;" horiz-adv-x="581" 
d="M777 754q0 -20 -16 -32t-36 -12q-21 0 -37 12t-16 32q0 19 16.5 31.5t36.5 12.5t36 -12.5t16 -31.5zM607 754q0 -20 -16 -32t-36 -12t-36.5 12t-16.5 32t16 32t37 12q20 0 36 -12.5t16 -31.5z" />
    <glyph glyph-name="copyright" unicode="&#xa9;" horiz-adv-x="1000" 
 />
    <glyph glyph-name="ordfeminine" unicode="&#xaa;" 
 />
    <glyph glyph-name="guillemotleft" unicode="&#xab;" 
 />
    <glyph glyph-name="logicalnot" unicode="&#xac;" 
 />
    <glyph glyph-name="registered" unicode="&#xae;" horiz-adv-x="1000" 
 />
    <glyph glyph-name="overscore" unicode="&#xaf;" 
 />
    <glyph glyph-name="degree" unicode="&#xb0;" horiz-adv-x="1000" 
 />
    <glyph glyph-name="plusminus" unicode="&#xb1;" 
 />
    <glyph glyph-name="twosuperior" unicode="&#xb2;" 
 />
    <glyph glyph-name="threesuperior" unicode="&#xb3;" 
 />
    <glyph glyph-name="acute" unicode="&#xb4;" horiz-adv-x="509" 
d="M741 805l-109 -110h-82l82 110h109z" />
    <glyph glyph-name="mu1" unicode="&#xb5;" 
 />
    <glyph glyph-name="paragraph" unicode="&#xb6;" horiz-adv-x="1000" 
 />
    <glyph glyph-name="middot" unicode="&#xb7;" 
 />
    <glyph glyph-name="middot" unicode="&#x2219;" 
 />
    <glyph glyph-name="cedilla" unicode="&#xb8;" horiz-adv-x="514" 
d="M336 -82q0 -40 -32 -64t-73 -24q-19 0 -46 3v21q17 -2 24 -2q22 0 40.5 15.5t18.5 38.5q0 36 -42 36q-4 0 -10 -1l54 87h29l-24 -39q61 -14 61 -71z" />
    <glyph glyph-name="onesuperior" unicode="&#xb9;" 
 />
    <glyph glyph-name="ordmasculine" unicode="&#xba;" horiz-adv-x="1000" 
 />
    <glyph glyph-name="guillemotright" unicode="&#xbb;" 
 />
    <glyph glyph-name="onequarter" unicode="&#xbc;" 
 />
    <glyph glyph-name="onehalf" unicode="&#xbd;" 
 />
    <glyph glyph-name="threequarters" unicode="&#xbe;" 
 />
    <glyph glyph-name="questiondown" unicode="&#xbf;" horiz-adv-x="1206" 
d="M30 -7q0 42 22 80q63 109 241 109h201q43 0 66 8q4 1 18 11q11 7 18 7h382q19 0 19 -14q0 -17 -16 -39q-65 -92 -323 -92h-100q-38 0 -67 -15q-38 -19 -38 -53q0 -35 38 -53q29 -14 67 -14h613q20 0 20 -12v-93q0 -13 -20 -13h-904q-155 0 -215 103q-22 38 -22 80z
M581 445q0 24 28 39q22 12 49 12h263q26 0 49 -12q28 -15 28 -39v-133q0 -25 -28 -39q-23 -12 -49 -12h-263q-27 0 -49 12q-28 14 -28 39v133z" />
    <glyph glyph-name="Agrave" unicode="&#xc0;" horiz-adv-x="1682" 
d="M1672 11q0 -11 -21 -11h-470q-9 0 -15 5l-506 440l-367 -327h558q19 0 19 -13v-92q0 -13 -19 -13h-807q-21 0 -21 11q0 5 5 10l754 660q5 5 15 5h112q10 0 16 -5l742 -660q5 -5 5 -10zM904 695h-82l-108 110h109z" />
    <glyph glyph-name="Aacute" unicode="&#xc1;" horiz-adv-x="1682" 
d="M1672 11q0 -11 -21 -11h-470q-9 0 -15 5l-506 440l-367 -327h558q19 0 19 -13v-92q0 -13 -19 -13h-807q-21 0 -21 11q0 5 5 10l754 660q5 5 15 5h112q10 0 16 -5l742 -660q5 -5 5 -10zM991 805l-109 -110h-82l82 110h109z" />
    <glyph glyph-name="Acircumflex" unicode="&#xc2;" horiz-adv-x="1682" 
d="M1672 11q0 -11 -21 -11h-470q-9 0 -15 5l-506 440l-367 -327h558q19 0 19 -13v-92q0 -13 -19 -13h-807q-21 0 -21 11q0 5 5 10l754 660q5 5 15 5h112q10 0 16 -5l742 -660q5 -5 5 -10zM984 700h-84l-55 65l-52 -65h-84l72 102h130z" />
    <glyph glyph-name="Atilde" unicode="&#xc3;" horiz-adv-x="1682" 
d="M1672 11q0 -11 -21 -11h-470q-9 0 -15 5l-506 440l-367 -327h558q19 0 19 -13v-92q0 -13 -19 -13h-807q-21 0 -21 11q0 5 5 10l754 660q5 5 15 5h112q10 0 16 -5l742 -660q5 -5 5 -10zM1004 805q0 -64 -47 -89q-21 -11 -44 -11q-34 0 -85.5 27t-68.5 27q-23 0 -33 -17
q-5 -8 -12 -36h-15q3 99 90 99q33 0 84 -26.5t71 -26.5q34 0 45 53h15z" />
    <glyph glyph-name="Adieresis" unicode="&#xc4;" horiz-adv-x="1682" 
d="M1672 11q0 -11 -21 -11h-470q-9 0 -15 5l-506 440l-367 -327h558q19 0 19 -13v-92q0 -13 -19 -13h-807q-21 0 -21 11q0 5 5 10l754 660q5 5 15 5h112q10 0 16 -5l742 -660q5 -5 5 -10zM967 754q0 -20 -16 -32t-36 -12q-21 0 -37 12t-16 32q0 19 16.5 31.5t36.5 12.5
t36 -12.5t16 -31.5zM797 754q0 -20 -16 -32t-36 -12t-36.5 12t-16.5 32t16 32t37 12q20 0 36 -12.5t16 -31.5z" />
    <glyph glyph-name="Aring" unicode="&#xc5;" horiz-adv-x="1682" 
d="M1672 11q0 -11 -21 -11h-470q-9 0 -15 5l-506 440l-367 -327h558q19 0 19 -13v-92q0 -13 -19 -13h-807q-21 0 -21 11q0 5 5 10l754 660q5 5 15 5h112q10 0 16 -5l742 -660q5 -5 5 -10zM943 750q0 -38 -27.5 -62.5t-65.5 -24.5t-66 25t-28 62t28 61.5t66 24.5
q37 0 65 -24.5t28 -61.5zM909 750q0 23 -18 39t-41 16q-25 0 -42.5 -15.5t-17.5 -39.5t17.5 -39.5t42.5 -15.5q23 0 41 15.5t18 39.5z" />
    <glyph glyph-name="AE" unicode="&#xc6;" horiz-adv-x="2150" 
d="M1658 11q0 -11 -21 -11h-470q-9 0 -15 5l-506 440l-367 -327h558q19 0 19 -13v-92q0 -13 -19 -13h-807q-21 0 -21 11q0 5 5 10l754 660q5 5 15 5h112q10 0 16 -5l742 -660q5 -5 5 -10zM2084 327q0 -13 -19 -13h-505q-20 0 -20 13v93q0 13 20 13h505q19 0 19 -13v-93z
M2084 13q0 -13 -19 -13h-713q-147 0 -240 99q-91 96 -91 244q0 150 91 246.5t240 96.5h713q19 0 19 -13v-93q0 -12 -19 -12h-479q-74 0 -99 -44q-19 -32 -19 -113v-109q0 -84 18 -124q27 -60 100 -60h479q19 0 19 -13v-92z" />
    <glyph glyph-name="Ccedilla" unicode="&#xc7;" horiz-adv-x="1108" 
d="M1077 13q0 -13 -19 -13h-713q-146 0 -239 99q-92 96 -92 244q0 150 91 246.5t240 96.5h713q19 0 19 -13v-93q0 -12 -19 -12h-479q-73 0 -99 -44q-19 -32 -19 -113v-109q0 -84 18 -124q27 -60 100 -60h479q19 0 19 -13v-92zM656 -82q0 -40 -32 -64t-73 -24q-19 0 -46 3v21
q17 -2 24 -2q22 0 40.5 15.5t18.5 38.5q0 36 -42 36q-4 0 -10 -1l54 87h29l-24 -39q61 -14 61 -71z" />
    <glyph glyph-name="Egrave" unicode="&#xc8;" horiz-adv-x="1122" 
d="M1088 327q0 -13 -19 -13h-505q-20 0 -20 13v93q0 13 20 13h505q19 0 19 -13v-93zM1088 13q0 -13 -19 -13h-713q-147 0 -240 99q-91 96 -91 244q0 150 91 246.5t240 96.5h713q19 0 19 -13v-93q0 -12 -19 -12h-479q-74 0 -99 -44q-19 -32 -19 -113v-109q0 -84 18 -124
q27 -60 100 -60h479q19 0 19 -13v-92zM724 695h-82l-108 110h109z" />
    <glyph glyph-name="Eacute" unicode="&#xc9;" horiz-adv-x="1122" 
d="M1088 327q0 -13 -19 -13h-505q-20 0 -20 13v93q0 13 20 13h505q19 0 19 -13v-93zM1088 13q0 -13 -19 -13h-713q-147 0 -240 99q-91 96 -91 244q0 150 91 246.5t240 96.5h713q19 0 19 -13v-93q0 -12 -19 -12h-479q-74 0 -99 -44q-19 -32 -19 -113v-109q0 -84 18 -124
q27 -60 100 -60h479q19 0 19 -13v-92zM741 805l-109 -110h-82l82 110h109z" />
    <glyph glyph-name="Ecircumflex" unicode="&#xca;" horiz-adv-x="1122" 
d="M1088 327q0 -13 -19 -13h-505q-20 0 -20 13v93q0 13 20 13h505q19 0 19 -13v-93zM1088 13q0 -13 -19 -13h-713q-147 0 -240 99q-91 96 -91 244q0 150 91 246.5t240 96.5h713q19 0 19 -13v-93q0 -12 -19 -12h-479q-74 0 -99 -44q-19 -32 -19 -113v-109q0 -84 18 -124
q27 -60 100 -60h479q19 0 19 -13v-92zM774 700h-84l-55 65l-52 -65h-84l72 102h130z" />
    <glyph glyph-name="Edieresis" unicode="&#xcb;" horiz-adv-x="1122" 
d="M1088 327q0 -13 -19 -13h-505q-20 0 -20 13v93q0 13 20 13h505q19 0 19 -13v-93zM1088 13q0 -13 -19 -13h-713q-147 0 -240 99q-91 96 -91 244q0 150 91 246.5t240 96.5h713q19 0 19 -13v-93q0 -12 -19 -12h-479q-74 0 -99 -44q-19 -32 -19 -113v-109q0 -84 18 -124
q27 -60 100 -60h479q19 0 19 -13v-92zM777 754q0 -20 -16 -32t-36 -12q-21 0 -37 12t-16 32q0 19 16.5 31.5t36.5 12.5t36 -12.5t16 -31.5zM607 754q0 -20 -16 -32t-36 -12t-36.5 12t-16.5 32t16 32t37 12q20 0 36 -12.5t16 -31.5z" />
    <glyph glyph-name="Igrave" unicode="&#xcc;" horiz-adv-x="489" 
d="M455 13q0 -13 -19 -13h-378q-20 0 -20 13v660q0 13 20 13h378q19 0 19 -13v-660zM314 695h-82l-108 110h109z" />
    <glyph glyph-name="Iacute" unicode="&#xcd;" horiz-adv-x="489" 
d="M455 13q0 -13 -19 -13h-378q-20 0 -20 13v660q0 13 20 13h378q19 0 19 -13v-660zM371 805l-109 -110h-82l82 110h109z" />
    <glyph glyph-name="Icircumflex" unicode="&#xce;" horiz-adv-x="489" 
d="M455 13q0 -13 -19 -13h-378q-20 0 -20 13v660q0 13 20 13h378q19 0 19 -13v-660zM394 700h-84l-55 65l-52 -65h-84l72 102h130z" />
    <glyph glyph-name="Idieresis" unicode="&#xcf;" horiz-adv-x="489" 
d="M455 13q0 -13 -19 -13h-378q-20 0 -20 13v660q0 13 20 13h378q19 0 19 -13v-660zM397 754q0 -20 -16 -32t-36 -12q-21 0 -37 12t-16 32q0 19 16.5 31.5t36.5 12.5t36 -12.5t16 -31.5zM227 754q0 -20 -16 -32t-36 -12t-36.5 12t-16.5 32t16 32t37 12q20 0 36 -12.5
t16 -31.5z" />
    <glyph glyph-name="Eth" unicode="&#xd0;" horiz-adv-x="1000" 
 />
    <glyph glyph-name="Ntilde" unicode="&#xd1;" horiz-adv-x="1368" 
d="M1332 13q0 -13 -19 -13h-169q-24 0 -70 15l-850 275v-277q0 -13 -19 -13h-145q-20 0 -20 13v660q0 13 20 13h162q20 0 60 -13l866 -282v282q0 13 20 13h145q19 0 19 -13v-660zM804 805q0 -64 -47 -89q-21 -11 -44 -11q-34 0 -85.5 27t-68.5 27q-23 0 -33 -17
q-5 -8 -12 -36h-15q3 99 90 99q33 0 84 -26.5t71 -26.5q34 0 45 53h15z" />
    <glyph glyph-name="Ograve" unicode="&#xd2;" horiz-adv-x="1233" 
d="M1221 343q0 -147 -92 -245t-239 -98h-541q-146 0 -238.5 98t-92.5 245q0 150 91 246.5t240 96.5h541q149 0 240 -96.5t91 -246.5zM775 302v109q0 81 -19 113q-26 44 -99 44h-93q-69 0 -93 -47q-17 -32 -17 -110v-109q0 -83 16 -122q25 -62 94 -62h93q73 0 100 60
q18 39 18 124zM724 695h-82l-108 110h109z" />
    <glyph glyph-name="Oacute" unicode="&#xd3;" horiz-adv-x="1233" 
d="M1221 343q0 -147 -92 -245t-239 -98h-541q-146 0 -238.5 98t-92.5 245q0 150 91 246.5t240 96.5h541q149 0 240 -96.5t91 -246.5zM775 302v109q0 81 -19 113q-26 44 -99 44h-93q-69 0 -93 -47q-17 -32 -17 -110v-109q0 -83 16 -122q25 -62 94 -62h93q73 0 100 60
q18 39 18 124zM741 805l-109 -110h-82l82 110h109z" />
    <glyph glyph-name="Ocircumflex" unicode="&#xd4;" horiz-adv-x="1233" 
d="M1221 343q0 -147 -92 -245t-239 -98h-541q-146 0 -238.5 98t-92.5 245q0 150 91 246.5t240 96.5h541q149 0 240 -96.5t91 -246.5zM775 302v109q0 81 -19 113q-26 44 -99 44h-93q-69 0 -93 -47q-17 -32 -17 -110v-109q0 -83 16 -122q25 -62 94 -62h93q73 0 100 60
q18 39 18 124zM774 700h-84l-55 65l-52 -65h-84l72 102h130z" />
    <glyph glyph-name="Otilde" unicode="&#xd5;" horiz-adv-x="1233" 
d="M1221 343q0 -147 -92 -245t-239 -98h-541q-146 0 -238.5 98t-92.5 245q0 150 91 246.5t240 96.5h541q149 0 240 -96.5t91 -246.5zM775 302v109q0 81 -19 113q-26 44 -99 44h-93q-69 0 -93 -47q-17 -32 -17 -110v-109q0 -83 16 -122q25 -62 94 -62h93q73 0 100 60
q18 39 18 124zM784 805q0 -64 -47 -89q-21 -11 -44 -11q-34 0 -85.5 27t-68.5 27q-23 0 -33 -17q-5 -8 -12 -36h-15q3 99 90 99q33 0 84 -26.5t71 -26.5q34 0 45 53h15z" />
    <glyph glyph-name="Odieresis" unicode="&#xd6;" horiz-adv-x="1233" 
d="M1221 343q0 -147 -92 -245t-239 -98h-541q-146 0 -238.5 98t-92.5 245q0 150 91 246.5t240 96.5h541q149 0 240 -96.5t91 -246.5zM775 302v109q0 81 -19 113q-26 44 -99 44h-93q-69 0 -93 -47q-17 -32 -17 -110v-109q0 -83 16 -122q25 -62 94 -62h93q73 0 100 60
q18 39 18 124zM777 754q0 -20 -16 -32t-36 -12q-21 0 -37 12t-16 32q0 19 16.5 31.5t36.5 12.5t36 -12.5t16 -31.5zM607 754q0 -20 -16 -32t-36 -12t-36.5 12t-16.5 32t16 32t37 12q20 0 36 -12.5t16 -31.5z" />
    <glyph glyph-name="multiply" unicode="&#xd7;" horiz-adv-x="1000" 
 />
    <glyph glyph-name="Oslash" unicode="&#xd8;" horiz-adv-x="1233" 
 />
    <glyph glyph-name="Ugrave" unicode="&#xd9;" horiz-adv-x="1254" 
d="M1221 349q0 -148 -87 -246q-90 -103 -237 -103h-541q-147 0 -237 103q-87 98 -87 246v324q0 13 20 13h390q19 0 19 -13v-371q0 -84 16 -122q24 -62 94 -62h331q144 0 144 244v311q0 13 19 13h137q19 0 19 -13v-324zM764 695h-82l-108 110h109z" />
    <glyph glyph-name="Uacute" unicode="&#xda;" horiz-adv-x="1254" 
d="M1221 349q0 -148 -87 -246q-90 -103 -237 -103h-541q-147 0 -237 103q-87 98 -87 246v324q0 13 20 13h390q19 0 19 -13v-371q0 -84 16 -122q24 -62 94 -62h331q144 0 144 244v311q0 13 19 13h137q19 0 19 -13v-324zM801 805l-109 -110h-82l82 110h109z" />
    <glyph glyph-name="Ucircumflex" unicode="&#xdb;" horiz-adv-x="1254" 
d="M1221 349q0 -148 -87 -246q-90 -103 -237 -103h-541q-147 0 -237 103q-87 98 -87 246v324q0 13 20 13h390q19 0 19 -13v-371q0 -84 16 -122q24 -62 94 -62h331q144 0 144 244v311q0 13 19 13h137q19 0 19 -13v-324zM814 700h-84l-55 65l-52 -65h-84l72 102h130z" />
    <glyph glyph-name="Udieresis" unicode="&#xdc;" horiz-adv-x="1254" 
d="M1221 349q0 -148 -87 -246q-90 -103 -237 -103h-541q-147 0 -237 103q-87 98 -87 246v324q0 13 20 13h390q19 0 19 -13v-371q0 -84 16 -122q24 -62 94 -62h331q144 0 144 244v311q0 13 19 13h137q19 0 19 -13v-324zM827 754q0 -20 -16 -32t-36 -12q-21 0 -37 12t-16 32
q0 19 16.5 31.5t36.5 12.5t36 -12.5t16 -31.5zM657 754q0 -20 -16 -32t-36 -12t-36.5 12t-16.5 32t16 32t37 12q20 0 36 -12.5t16 -31.5z" />
    <glyph glyph-name="Yacute" unicode="&#xdd;" horiz-adv-x="1000" 
 />
    <glyph glyph-name="Thorn" unicode="&#xde;" 
 />
    <glyph glyph-name="germandbls" unicode="&#xdf;" horiz-adv-x="1122" 
d="M1138 502q0 -88 -95 -140q89 -63 89 -161q0 -91 -72 -148q-67 -52 -160 -52h-351q-19 0 -19 12v93q0 13 19 13h60q43 0 71 25.5t28 68.5q0 42 -28 69.5t-71 27.5h-60q-19 0 -19 12v93q0 13 19 13h60q39 0 68 15q36 19 36 54t-36 55q-30 16 -68 16h-60q-48 0 -76 -28.5
t-28 -76.5v-450q0 -13 -19 -13h-378q-20 0 -20 13v423q0 90 73 170.5t162 80.5h612q172 0 240 -107q23 -37 23 -78z" />
    <glyph glyph-name="agrave" unicode="&#xe0;" horiz-adv-x="1682" 
d="M1672 11q0 -11 -21 -11h-470q-9 0 -15 5l-506 440l-367 -327h558q19 0 19 -13v-92q0 -13 -19 -13h-807q-21 0 -21 11q0 5 5 10l754 660q5 5 15 5h112q10 0 16 -5l742 -660q5 -5 5 -10zM904 695h-82l-108 110h109z" />
    <glyph glyph-name="aacute" unicode="&#xe1;" horiz-adv-x="1682" 
d="M1672 11q0 -11 -21 -11h-470q-9 0 -15 5l-506 440l-367 -327h558q19 0 19 -13v-92q0 -13 -19 -13h-807q-21 0 -21 11q0 5 5 10l754 660q5 5 15 5h112q10 0 16 -5l742 -660q5 -5 5 -10zM991 805l-109 -110h-82l82 110h109z" />
    <glyph glyph-name="acircumflex" unicode="&#xe2;" horiz-adv-x="1682" 
d="M1672 11q0 -11 -21 -11h-470q-9 0 -15 5l-506 440l-367 -327h558q19 0 19 -13v-92q0 -13 -19 -13h-807q-21 0 -21 11q0 5 5 10l754 660q5 5 15 5h112q10 0 16 -5l742 -660q5 -5 5 -10zM984 700h-84l-55 65l-52 -65h-84l72 102h130z" />
    <glyph glyph-name="atilde" unicode="&#xe3;" horiz-adv-x="1682" 
d="M1672 11q0 -11 -21 -11h-470q-9 0 -15 5l-506 440l-367 -327h558q19 0 19 -13v-92q0 -13 -19 -13h-807q-21 0 -21 11q0 5 5 10l754 660q5 5 15 5h112q10 0 16 -5l742 -660q5 -5 5 -10zM1004 805q0 -64 -47 -89q-21 -11 -44 -11q-34 0 -85.5 27t-68.5 27q-23 0 -33 -17
q-5 -8 -12 -36h-15q3 99 90 99q33 0 84 -26.5t71 -26.5q34 0 45 53h15z" />
    <glyph glyph-name="adieresis" unicode="&#xe4;" horiz-adv-x="1682" 
d="M1672 11q0 -11 -21 -11h-470q-9 0 -15 5l-506 440l-367 -327h558q19 0 19 -13v-92q0 -13 -19 -13h-807q-21 0 -21 11q0 5 5 10l754 660q5 5 15 5h112q10 0 16 -5l742 -660q5 -5 5 -10zM967 754q0 -20 -16 -32t-36 -12q-21 0 -37 12t-16 32q0 19 16.5 31.5t36.5 12.5
t36 -12.5t16 -31.5zM797 754q0 -20 -16 -32t-36 -12t-36.5 12t-16.5 32t16 32t37 12q20 0 36 -12.5t16 -31.5z" />
    <glyph glyph-name="aring" unicode="&#xe5;" horiz-adv-x="1682" 
d="M1672 11q0 -11 -21 -11h-470q-9 0 -15 5l-506 440l-367 -327h558q19 0 19 -13v-92q0 -13 -19 -13h-807q-21 0 -21 11q0 5 5 10l754 660q5 5 15 5h112q10 0 16 -5l742 -660q5 -5 5 -10zM943 750q0 -38 -27.5 -62.5t-65.5 -24.5t-66 25t-28 62t28 61.5t66 24.5
q37 0 65 -24.5t28 -61.5zM909 750q0 23 -18 39t-41 16q-25 0 -42.5 -15.5t-17.5 -39.5t17.5 -39.5t42.5 -15.5q23 0 41 15.5t18 39.5z" />
    <glyph glyph-name="ae" unicode="&#xe6;" horiz-adv-x="2147" 
d="M1658 11q0 -11 -21 -11h-470q-9 0 -15 5l-506 440l-367 -327h558q19 0 19 -13v-92q0 -13 -19 -13h-807q-21 0 -21 11q0 5 5 10l754 660q5 5 15 5h112q10 0 16 -5l742 -660q5 -5 5 -10zM2084 327q0 -13 -19 -13h-505q-20 0 -20 13v93q0 13 20 13h505q19 0 19 -13v-93z
M2084 13q0 -13 -19 -13h-713q-147 0 -240 99q-91 96 -91 244q0 150 91 246.5t240 96.5h713q19 0 19 -13v-93q0 -12 -19 -12h-479q-74 0 -99 -44q-19 -32 -19 -113v-109q0 -84 18 -124q27 -60 100 -60h479q19 0 19 -13v-92z" />
    <glyph glyph-name="ccedilla" unicode="&#xe7;" horiz-adv-x="1682" 
d="M1077 13q0 -13 -19 -13h-713q-146 0 -239 99q-92 96 -92 244q0 150 91 246.5t240 96.5h713q19 0 19 -13v-93q0 -12 -19 -12h-479q-73 0 -99 -44q-19 -32 -19 -113v-109q0 -84 18 -124q27 -60 100 -60h479q19 0 19 -13v-92zM656 -82q0 -40 -32 -64t-73 -24q-19 0 -46 3v21
q17 -2 24 -2q22 0 40.5 15.5t18.5 38.5q0 36 -42 36q-4 0 -10 -1l54 87h29l-24 -39q61 -14 61 -71z" />
    <glyph glyph-name="egrave" unicode="&#xe8;" horiz-adv-x="1122" 
d="M1088 327q0 -13 -19 -13h-505q-20 0 -20 13v93q0 13 20 13h505q19 0 19 -13v-93zM1088 13q0 -13 -19 -13h-713q-147 0 -240 99q-91 96 -91 244q0 150 91 246.5t240 96.5h713q19 0 19 -13v-93q0 -12 -19 -12h-479q-74 0 -99 -44q-19 -32 -19 -113v-109q0 -84 18 -124
q27 -60 100 -60h479q19 0 19 -13v-92zM724 695h-82l-108 110h109z" />
    <glyph glyph-name="eacute" unicode="&#xe9;" horiz-adv-x="1122" 
d="M1088 327q0 -13 -19 -13h-505q-20 0 -20 13v93q0 13 20 13h505q19 0 19 -13v-93zM1088 13q0 -13 -19 -13h-713q-147 0 -240 99q-91 96 -91 244q0 150 91 246.5t240 96.5h713q19 0 19 -13v-93q0 -12 -19 -12h-479q-74 0 -99 -44q-19 -32 -19 -113v-109q0 -84 18 -124
q27 -60 100 -60h479q19 0 19 -13v-92zM741 805l-109 -110h-82l82 110h109z" />
    <glyph glyph-name="ecircumflex" unicode="&#xea;" horiz-adv-x="1122" 
d="M1088 327q0 -13 -19 -13h-505q-20 0 -20 13v93q0 13 20 13h505q19 0 19 -13v-93zM1088 13q0 -13 -19 -13h-713q-147 0 -240 99q-91 96 -91 244q0 150 91 246.5t240 96.5h713q19 0 19 -13v-93q0 -12 -19 -12h-479q-74 0 -99 -44q-19 -32 -19 -113v-109q0 -84 18 -124
q27 -60 100 -60h479q19 0 19 -13v-92zM774 700h-84l-55 65l-52 -65h-84l72 102h130z" />
    <glyph glyph-name="edieresis" unicode="&#xeb;" horiz-adv-x="1122" 
d="M1088 327q0 -13 -19 -13h-505q-20 0 -20 13v93q0 13 20 13h505q19 0 19 -13v-93zM1088 13q0 -13 -19 -13h-713q-147 0 -240 99q-91 96 -91 244q0 150 91 246.5t240 96.5h713q19 0 19 -13v-93q0 -12 -19 -12h-479q-74 0 -99 -44q-19 -32 -19 -113v-109q0 -84 18 -124
q27 -60 100 -60h479q19 0 19 -13v-92zM777 754q0 -20 -16 -32t-36 -12q-21 0 -37 12t-16 32q0 19 16.5 31.5t36.5 12.5t36 -12.5t16 -31.5zM607 754q0 -20 -16 -32t-36 -12t-36.5 12t-16.5 32t16 32t37 12q20 0 36 -12.5t16 -31.5z" />
    <glyph glyph-name="igrave" unicode="&#xec;" horiz-adv-x="489" 
d="M455 13q0 -13 -19 -13h-378q-20 0 -20 13v660q0 13 20 13h378q19 0 19 -13v-660zM314 695h-82l-108 110h109z" />
    <glyph glyph-name="iacute" unicode="&#xed;" horiz-adv-x="489" 
d="M455 13q0 -13 -19 -13h-378q-20 0 -20 13v660q0 13 20 13h378q19 0 19 -13v-660zM371 805l-109 -110h-82l82 110h109z" />
    <glyph glyph-name="icircumflex" unicode="&#xee;" horiz-adv-x="489" 
d="M455 13q0 -13 -19 -13h-378q-20 0 -20 13v660q0 13 20 13h378q19 0 19 -13v-660zM394 700h-84l-55 65l-52 -65h-84l72 102h130z" />
    <glyph glyph-name="idieresis" unicode="&#xef;" horiz-adv-x="489" 
d="M455 13q0 -13 -19 -13h-378q-20 0 -20 13v660q0 13 20 13h378q19 0 19 -13v-660zM397 754q0 -20 -16 -32t-36 -12q-21 0 -37 12t-16 32q0 19 16.5 31.5t36.5 12.5t36 -12.5t16 -31.5zM227 754q0 -20 -16 -32t-36 -12t-36.5 12t-16.5 32t16 32t37 12q20 0 36 -12.5
t16 -31.5z" />
    <glyph glyph-name="eth" unicode="&#xf0;" horiz-adv-x="1000" 
 />
    <glyph glyph-name="ntilde" unicode="&#xf1;" horiz-adv-x="1368" 
d="M1332 13q0 -13 -19 -13h-169q-24 0 -70 15l-850 275v-277q0 -13 -19 -13h-145q-20 0 -20 13v660q0 13 20 13h162q20 0 60 -13l866 -282v282q0 13 20 13h145q19 0 19 -13v-660zM804 805q0 -64 -47 -89q-21 -11 -44 -11q-34 0 -85.5 27t-68.5 27q-23 0 -33 -17
q-5 -8 -12 -36h-15q3 99 90 99q33 0 84 -26.5t71 -26.5q34 0 45 53h15z" />
    <glyph glyph-name="ograve" unicode="&#xf2;" horiz-adv-x="1233" 
d="M1221 343q0 -147 -92 -245t-239 -98h-541q-146 0 -238.5 98t-92.5 245q0 150 91 246.5t240 96.5h541q149 0 240 -96.5t91 -246.5zM775 302v109q0 81 -19 113q-26 44 -99 44h-93q-69 0 -93 -47q-17 -32 -17 -110v-109q0 -83 16 -122q25 -62 94 -62h93q73 0 100 60
q18 39 18 124zM724 695h-82l-108 110h109z" />
    <glyph glyph-name="oacute" unicode="&#xf3;" horiz-adv-x="1233" 
d="M1221 343q0 -147 -92 -245t-239 -98h-541q-146 0 -238.5 98t-92.5 245q0 150 91 246.5t240 96.5h541q149 0 240 -96.5t91 -246.5zM775 302v109q0 81 -19 113q-26 44 -99 44h-93q-69 0 -93 -47q-17 -32 -17 -110v-109q0 -83 16 -122q25 -62 94 -62h93q73 0 100 60
q18 39 18 124zM741 805l-109 -110h-82l82 110h109z" />
    <glyph glyph-name="ocircumflex" unicode="&#xf4;" horiz-adv-x="1233" 
d="M1221 343q0 -147 -92 -245t-239 -98h-541q-146 0 -238.5 98t-92.5 245q0 150 91 246.5t240 96.5h541q149 0 240 -96.5t91 -246.5zM775 302v109q0 81 -19 113q-26 44 -99 44h-93q-69 0 -93 -47q-17 -32 -17 -110v-109q0 -83 16 -122q25 -62 94 -62h93q73 0 100 60
q18 39 18 124zM774 700h-84l-55 65l-52 -65h-84l72 102h130z" />
    <glyph glyph-name="otilde" unicode="&#xf5;" horiz-adv-x="1233" 
d="M1221 343q0 -147 -92 -245t-239 -98h-541q-146 0 -238.5 98t-92.5 245q0 150 91 246.5t240 96.5h541q149 0 240 -96.5t91 -246.5zM775 302v109q0 81 -19 113q-26 44 -99 44h-93q-69 0 -93 -47q-17 -32 -17 -110v-109q0 -83 16 -122q25 -62 94 -62h93q73 0 100 60
q18 39 18 124zM784 805q0 -64 -47 -89q-21 -11 -44 -11q-34 0 -85.5 27t-68.5 27q-23 0 -33 -17q-5 -8 -12 -36h-15q3 99 90 99q33 0 84 -26.5t71 -26.5q34 0 45 53h15z" />
    <glyph glyph-name="odieresis" unicode="&#xf6;" horiz-adv-x="1233" 
d="M1221 343q0 -147 -92 -245t-239 -98h-541q-146 0 -238.5 98t-92.5 245q0 150 91 246.5t240 96.5h541q149 0 240 -96.5t91 -246.5zM775 302v109q0 81 -19 113q-26 44 -99 44h-93q-69 0 -93 -47q-17 -32 -17 -110v-109q0 -83 16 -122q25 -62 94 -62h93q73 0 100 60
q18 39 18 124zM777 754q0 -20 -16 -32t-36 -12q-21 0 -37 12t-16 32q0 19 16.5 31.5t36.5 12.5t36 -12.5t16 -31.5zM607 754q0 -20 -16 -32t-36 -12t-36.5 12t-16.5 32t16 32t37 12q20 0 36 -12.5t16 -31.5z" />
    <glyph glyph-name="divide" unicode="&#xf7;" horiz-adv-x="1000" 
 />
    <glyph glyph-name="oslash" unicode="&#xf8;" horiz-adv-x="1233" 
 />
    <glyph glyph-name="ugrave" unicode="&#xf9;" horiz-adv-x="1254" 
d="M1221 349q0 -148 -87 -246q-90 -103 -237 -103h-541q-147 0 -237 103q-87 98 -87 246v324q0 13 20 13h390q19 0 19 -13v-371q0 -84 16 -122q24 -62 94 -62h331q144 0 144 244v311q0 13 19 13h137q19 0 19 -13v-324zM764 695h-82l-108 110h109z" />
    <glyph glyph-name="uacute" unicode="&#xfa;" horiz-adv-x="1254" 
d="M1221 349q0 -148 -87 -246q-90 -103 -237 -103h-541q-147 0 -237 103q-87 98 -87 246v324q0 13 20 13h390q19 0 19 -13v-371q0 -84 16 -122q24 -62 94 -62h331q144 0 144 244v311q0 13 19 13h137q19 0 19 -13v-324zM801 805l-109 -110h-82l82 110h109z" />
    <glyph glyph-name="ucircumflex" unicode="&#xfb;" horiz-adv-x="1254" 
d="M1221 349q0 -148 -87 -246q-90 -103 -237 -103h-541q-147 0 -237 103q-87 98 -87 246v324q0 13 20 13h390q19 0 19 -13v-371q0 -84 16 -122q24 -62 94 -62h331q144 0 144 244v311q0 13 19 13h137q19 0 19 -13v-324zM814 700h-84l-55 65l-52 -65h-84l72 102h130z" />
    <glyph glyph-name="udieresis" unicode="&#xfc;" horiz-adv-x="1254" 
d="M1221 349q0 -148 -87 -246q-90 -103 -237 -103h-541q-147 0 -237 103q-87 98 -87 246v324q0 13 20 13h390q19 0 19 -13v-371q0 -84 16 -122q24 -62 94 -62h331q144 0 144 244v311q0 13 19 13h137q19 0 19 -13v-324zM827 754q0 -20 -16 -32t-36 -12q-21 0 -37 12t-16 32
q0 19 16.5 31.5t36.5 12.5t36 -12.5t16 -31.5zM657 754q0 -20 -16 -32t-36 -12t-36.5 12t-16.5 32t16 32t37 12q20 0 36 -12.5t16 -31.5z" />
    <glyph glyph-name="yacute" unicode="&#xfd;" horiz-adv-x="603" 
 />
    <glyph glyph-name="thorn" unicode="&#xfe;" 
 />
    <glyph glyph-name="ydieresis" unicode="&#xff;" horiz-adv-x="1284" 
 />
    <glyph glyph-name="Amacron" unicode="&#x100;" 
 />
    <glyph glyph-name="amacron" unicode="&#x101;" 
 />
    <glyph glyph-name="Abreve" unicode="&#x102;" 
 />
    <glyph glyph-name="abreve" unicode="&#x103;" 
 />
    <glyph glyph-name="Aogonek" unicode="&#x104;" 
 />
    <glyph glyph-name="aogonek" unicode="&#x105;" 
 />
    <glyph glyph-name="Cacute" unicode="&#x106;" 
 />
    <glyph glyph-name="cacute" unicode="&#x107;" 
 />
    <glyph glyph-name="Ccircumflex" unicode="&#x108;" 
 />
    <glyph glyph-name="ccircumflex" unicode="&#x109;" 
 />
    <glyph glyph-name="Cdot" unicode="&#x10a;" 
 />
    <glyph glyph-name="cdot" unicode="&#x10b;" 
 />
    <glyph glyph-name="Ccaron" unicode="&#x10c;" 
 />
    <glyph glyph-name="ccaron" unicode="&#x10d;" 
 />
    <glyph glyph-name="Dcaron" unicode="&#x10e;" 
 />
    <glyph glyph-name="dcaron" unicode="&#x10f;" 
 />
    <glyph glyph-name="Dslash" unicode="&#x110;" 
 />
    <glyph glyph-name="dcroat" unicode="&#x111;" 
 />
    <glyph glyph-name="Emacron" unicode="&#x112;" 
 />
    <glyph glyph-name="emacron" unicode="&#x113;" 
 />
    <glyph glyph-name="Ebreve" unicode="&#x114;" 
 />
    <glyph glyph-name="ebreve" unicode="&#x115;" 
 />
    <glyph glyph-name="Edot" unicode="&#x116;" 
 />
    <glyph glyph-name="edot" unicode="&#x117;" 
 />
    <glyph glyph-name="Eogonek" unicode="&#x118;" 
 />
    <glyph glyph-name="eogonek" unicode="&#x119;" 
 />
    <glyph glyph-name="Ecaron" unicode="&#x11a;" 
 />
    <glyph glyph-name="ecaron" unicode="&#x11b;" 
 />
    <glyph glyph-name="Gcircumflex" unicode="&#x11c;" 
 />
    <glyph glyph-name="gcircumflex" unicode="&#x11d;" 
 />
    <glyph glyph-name="Gbreve" unicode="&#x11e;" 
 />
    <glyph glyph-name="gbreve" unicode="&#x11f;" 
 />
    <glyph glyph-name="Gdot" unicode="&#x120;" 
 />
    <glyph glyph-name="gdot" unicode="&#x121;" 
 />
    <glyph glyph-name="Gcedilla" unicode="&#x122;" 
 />
    <glyph glyph-name="gcedilla" unicode="&#x123;" 
 />
    <glyph glyph-name="Hcircumflex" unicode="&#x124;" 
 />
    <glyph glyph-name="hcircumflex" unicode="&#x125;" 
 />
    <glyph glyph-name="Hbar" unicode="&#x126;" 
 />
    <glyph glyph-name="hbar" unicode="&#x127;" 
 />
    <glyph glyph-name="Itilde" unicode="&#x128;" 
 />
    <glyph glyph-name="itilde" unicode="&#x129;" 
 />
    <glyph glyph-name="Imacron" unicode="&#x12a;" 
 />
    <glyph glyph-name="imacron" unicode="&#x12b;" 
 />
    <glyph glyph-name="Ibreve" unicode="&#x12c;" 
 />
    <glyph glyph-name="ibreve" unicode="&#x12d;" 
 />
    <glyph glyph-name="Iogonek" unicode="&#x12e;" 
 />
    <glyph glyph-name="iogonek" unicode="&#x12f;" 
 />
    <glyph glyph-name="Idotaccent" unicode="&#x130;" 
 />
    <glyph glyph-name="dotlessi" unicode="&#x131;" horiz-adv-x="1000" 
 />
    <glyph glyph-name="IJ" unicode="&#x132;" 
 />
    <glyph glyph-name="ij" unicode="&#x133;" 
 />
    <glyph glyph-name="Jcircumflex" unicode="&#x134;" 
 />
    <glyph glyph-name="jcircumflex" unicode="&#x135;" 
 />
    <glyph glyph-name="Kcedilla" unicode="&#x136;" 
 />
    <glyph glyph-name="kcedilla" unicode="&#x137;" 
 />
    <glyph glyph-name="kgreenlandic" unicode="&#x138;" 
 />
    <glyph glyph-name="Lacute" unicode="&#x139;" 
 />
    <glyph glyph-name="lacute" unicode="&#x13a;" 
 />
    <glyph glyph-name="Lcedilla" unicode="&#x13b;" 
 />
    <glyph glyph-name="lcedilla" unicode="&#x13c;" 
 />
    <glyph glyph-name="Lcaron" unicode="&#x13d;" 
 />
    <glyph glyph-name="lcaron" unicode="&#x13e;" 
 />
    <glyph glyph-name="Ldot" unicode="&#x13f;" 
 />
    <glyph glyph-name="ldot" unicode="&#x140;" 
 />
    <glyph glyph-name="Lslash" unicode="&#x141;" 
 />
    <glyph glyph-name="lslash" unicode="&#x142;" 
 />
    <glyph glyph-name="Nacute" unicode="&#x143;" 
 />
    <glyph glyph-name="nacute" unicode="&#x144;" 
 />
    <glyph glyph-name="Ncedilla" unicode="&#x145;" 
 />
    <glyph glyph-name="ncedilla" unicode="&#x146;" 
 />
    <glyph glyph-name="Ncaron" unicode="&#x147;" 
 />
    <glyph glyph-name="ncaron" unicode="&#x148;" 
 />
    <glyph glyph-name="napostrophe" unicode="&#x149;" 
 />
    <glyph glyph-name="Eng" unicode="&#x14a;" 
 />
    <glyph glyph-name="eng" unicode="&#x14b;" 
 />
    <glyph glyph-name="Omacron" unicode="&#x14c;" 
 />
    <glyph glyph-name="omacron" unicode="&#x14d;" 
 />
    <glyph glyph-name="Obreve" unicode="&#x14e;" 
 />
    <glyph glyph-name="obreve" unicode="&#x14f;" 
 />
    <glyph glyph-name="Odblacute" unicode="&#x150;" 
 />
    <glyph glyph-name="odblacute" unicode="&#x151;" 
 />
    <glyph glyph-name="OE" unicode="&#x152;" horiz-adv-x="1905" 
d="M1217 343q0 -147 -92 -245t-239 -98h-541q-146 0 -238.5 98t-92.5 245q0 150 91 246.5t240 96.5h541q149 0 240 -96.5t91 -246.5zM771 302v109q0 81 -19 113q-26 44 -99 44h-93q-69 0 -93 -47q-17 -32 -17 -110v-109q0 -83 16 -122q25 -62 94 -62h93q73 0 100 60
q18 39 18 124zM1846 327q0 -13 -19 -13h-505q-20 0 -20 13v93q0 13 20 13h505q19 0 19 -13v-93zM1846 13q0 -13 -19 -13h-713q-147 0 -240 99q-91 96 -91 244q0 150 91 246.5t240 96.5h713q19 0 19 -13v-93q0 -12 -19 -12h-479q-74 0 -99 -44q-19 -32 -19 -113v-109
q0 -84 18 -124q27 -60 100 -60h479q19 0 19 -13v-92z" />
    <glyph glyph-name="oe" unicode="&#x153;" horiz-adv-x="1920" 
d="M1217 343q0 -147 -92 -245t-239 -98h-541q-146 0 -238.5 98t-92.5 245q0 150 91 246.5t240 96.5h541q149 0 240 -96.5t91 -246.5zM771 302v109q0 81 -19 113q-26 44 -99 44h-93q-69 0 -93 -47q-17 -32 -17 -110v-109q0 -83 16 -122q25 -62 94 -62h93q73 0 100 60
q18 39 18 124zM1846 327q0 -13 -19 -13h-505q-20 0 -20 13v93q0 13 20 13h505q19 0 19 -13v-93zM1846 13q0 -13 -19 -13h-713q-147 0 -240 99q-91 96 -91 244q0 150 91 246.5t240 96.5h713q19 0 19 -13v-93q0 -12 -19 -12h-479q-74 0 -99 -44q-19 -32 -19 -113v-109
q0 -84 18 -124q27 -60 100 -60h479q19 0 19 -13v-92z" />
    <glyph glyph-name="Racute" unicode="&#x154;" 
 />
    <glyph glyph-name="racute" unicode="&#x155;" 
 />
    <glyph glyph-name="Rcedilla" unicode="&#x156;" 
 />
    <glyph glyph-name="rcedilla" unicode="&#x157;" 
 />
    <glyph glyph-name="Rcaron" unicode="&#x158;" 
 />
    <glyph glyph-name="rcaron" unicode="&#x159;" 
 />
    <glyph glyph-name="Sacute" unicode="&#x15a;" 
 />
    <glyph glyph-name="sacute" unicode="&#x15b;" 
 />
    <glyph glyph-name="Scircumflex" unicode="&#x15c;" 
 />
    <glyph glyph-name="scircumflex" unicode="&#x15d;" 
 />
    <glyph glyph-name="Scedilla" unicode="&#x15e;" 
 />
    <glyph glyph-name="scedilla" unicode="&#x15f;" 
 />
    <glyph glyph-name="Scaron" unicode="&#x160;" 
 />
    <glyph glyph-name="scaron" unicode="&#x161;" 
 />
    <glyph glyph-name="Tcedilla" unicode="&#x162;" 
 />
    <glyph glyph-name="tcedilla" unicode="&#x163;" 
 />
    <glyph glyph-name="Tcaron" unicode="&#x164;" 
 />
    <glyph glyph-name="tcaron" unicode="&#x165;" 
 />
    <glyph glyph-name="Tbar" unicode="&#x166;" 
 />
    <glyph glyph-name="tbar" unicode="&#x167;" 
 />
    <glyph glyph-name="Utilde" unicode="&#x168;" 
 />
    <glyph glyph-name="utilde" unicode="&#x169;" 
 />
    <glyph glyph-name="Umacron" unicode="&#x16a;" 
 />
    <glyph glyph-name="umacron" unicode="&#x16b;" 
 />
    <glyph glyph-name="Ubreve" unicode="&#x16c;" 
 />
    <glyph glyph-name="ubreve" unicode="&#x16d;" 
 />
    <glyph glyph-name="Uring" unicode="&#x16e;" 
 />
    <glyph glyph-name="uring" unicode="&#x16f;" 
 />
    <glyph glyph-name="Udblacute" unicode="&#x170;" 
 />
    <glyph glyph-name="udblacute" unicode="&#x171;" 
 />
    <glyph glyph-name="Uogonek" unicode="&#x172;" 
 />
    <glyph glyph-name="uogonek" unicode="&#x173;" 
 />
    <glyph glyph-name="Wcircumflex" unicode="&#x174;" 
 />
    <glyph glyph-name="wcircumflex" unicode="&#x175;" 
 />
    <glyph glyph-name="Ycircumflex" unicode="&#x176;" 
 />
    <glyph glyph-name="ycircumflex" unicode="&#x177;" 
 />
    <glyph glyph-name="Ydieresis" unicode="&#x178;" horiz-adv-x="1284" 
 />
    <glyph glyph-name="Zacute" unicode="&#x179;" 
 />
    <glyph glyph-name="zacute" unicode="&#x17a;" 
 />
    <glyph glyph-name="Zdot" unicode="&#x17b;" 
 />
    <glyph glyph-name="zdot" unicode="&#x17c;" 
 />
    <glyph glyph-name="Zcaron" unicode="&#x17d;" 
 />
    <glyph glyph-name="zcaron" unicode="&#x17e;" 
 />
    <glyph glyph-name="longs" unicode="&#x17f;" 
 />
    <glyph glyph-name="florin" unicode="&#x192;" 
 />
    <glyph glyph-name="Aringacute" unicode="&#x1fa;" 
 />
    <glyph glyph-name="aringacute" unicode="&#x1fb;" 
 />
    <glyph glyph-name="AEacute" unicode="&#x1fc;" 
 />
    <glyph glyph-name="aeacute" unicode="&#x1fd;" 
 />
    <glyph glyph-name="Oslashacute" unicode="&#x1fe;" 
 />
    <glyph glyph-name="oslashacute" unicode="&#x1ff;" 
 />
    <glyph glyph-name="circumflex" unicode="&#x2c6;" horiz-adv-x="589" 
d="M774 700h-84l-55 65l-52 -65h-84l72 102h130z" />
    <glyph glyph-name="caron" unicode="&#x2c7;" 
 />
    <glyph glyph-name="macron" unicode="&#x2c9;" 
 />
    <glyph glyph-name="breve" unicode="&#x2d8;" 
 />
    <glyph glyph-name="dotaccent" unicode="&#x2d9;" 
 />
    <glyph glyph-name="ring" unicode="&#x2da;" horiz-adv-x="571" 
d="M733 750q0 -38 -27.5 -62.5t-65.5 -24.5t-66 25t-28 62t28 61.5t66 24.5q37 0 65 -24.5t28 -61.5zM699 750q0 23 -18 39t-41 16q-25 0 -42.5 -15.5t-17.5 -39.5t17.5 -39.5t42.5 -15.5q23 0 41 15.5t18 39.5z" />
    <glyph glyph-name="ogonek" unicode="&#x2db;" 
 />
    <glyph glyph-name="tilde" unicode="&#x2dc;" horiz-adv-x="557" 
d="M784 805q0 -64 -47 -89q-21 -11 -44 -11q-34 0 -85.5 27t-68.5 27q-23 0 -33 -17q-5 -8 -12 -36h-15q3 99 90 99q33 0 84 -26.5t71 -26.5q34 0 45 53h15z" />
    <glyph glyph-name="hungarumlaut" unicode="&#x2dd;" 
 />
    <glyph glyph-name="tonos" unicode="&#x384;" 
 />
    <glyph glyph-name="dieresistonos" unicode="&#x385;" 
 />
    <glyph glyph-name="Alphatonos" unicode="&#x386;" 
 />
    <glyph glyph-name="anoteleia" unicode="&#x387;" 
 />
    <glyph glyph-name="Epsilontonos" unicode="&#x388;" 
 />
    <glyph glyph-name="Etatonos" unicode="&#x389;" 
 />
    <glyph glyph-name="Iotatonos" unicode="&#x38a;" 
 />
    <glyph glyph-name="Omicrontonos" unicode="&#x38c;" 
 />
    <glyph glyph-name="Upsilontonos" unicode="&#x38e;" 
 />
    <glyph glyph-name="Omegatonos" unicode="&#x38f;" 
 />
    <glyph glyph-name="iotadieresistonos" unicode="&#x390;" 
 />
    <glyph glyph-name="Alpha" unicode="&#x391;" 
 />
    <glyph glyph-name="Beta" unicode="&#x392;" 
 />
    <glyph glyph-name="Gamma" unicode="&#x393;" 
 />
    <glyph glyph-name="Delta" unicode="&#x394;" 
 />
    <glyph glyph-name="Delta" unicode="&#x2206;" 
 />
    <glyph glyph-name="Epsilon" unicode="&#x395;" 
 />
    <glyph glyph-name="Zeta" unicode="&#x396;" 
 />
    <glyph glyph-name="Eta" unicode="&#x397;" 
 />
    <glyph glyph-name="Theta" unicode="&#x398;" 
 />
    <glyph glyph-name="Theta" unicode="&#x472;" 
 />
    <glyph glyph-name="Iota" unicode="&#x399;" 
 />
    <glyph glyph-name="Kappa" unicode="&#x39a;" 
 />
    <glyph glyph-name="Lambda" unicode="&#x39b;" 
 />
    <glyph glyph-name="Mu" unicode="&#x39c;" 
 />
    <glyph glyph-name="Nu" unicode="&#x39d;" 
 />
    <glyph glyph-name="Xi" unicode="&#x39e;" 
 />
    <glyph glyph-name="Omicron" unicode="&#x39f;" 
 />
    <glyph glyph-name="Pi" unicode="&#x3a0;" 
 />
    <glyph glyph-name="Rho" unicode="&#x3a1;" 
 />
    <glyph glyph-name="Sigma" unicode="&#x3a3;" 
 />
    <glyph glyph-name="Tau" unicode="&#x3a4;" 
 />
    <glyph glyph-name="Upsilon" unicode="&#x3a5;" 
 />
    <glyph glyph-name="Phi" unicode="&#x3a6;" 
 />
    <glyph glyph-name="Chi" unicode="&#x3a7;" 
 />
    <glyph glyph-name="Psi" unicode="&#x3a8;" 
 />
    <glyph glyph-name="Psi" unicode="&#x470;" 
 />
    <glyph glyph-name="Omega" unicode="&#x3a9;" 
 />
    <glyph glyph-name="Omega" unicode="&#x2126;" 
 />
    <glyph glyph-name="Iotadieresis" unicode="&#x3aa;" 
 />
    <glyph glyph-name="Upsilondieresis" unicode="&#x3ab;" 
 />
    <glyph glyph-name="alphatonos" unicode="&#x3ac;" 
 />
    <glyph glyph-name="epsilontonos" unicode="&#x3ad;" 
 />
    <glyph glyph-name="etatonos" unicode="&#x3ae;" 
 />
    <glyph glyph-name="iotatonos" unicode="&#x3af;" 
 />
    <glyph glyph-name="upsilondieresistonos" unicode="&#x3b0;" 
 />
    <glyph glyph-name="alpha" unicode="&#x3b1;" 
 />
    <glyph glyph-name="beta" unicode="&#x3b2;" 
 />
    <glyph glyph-name="gamma" unicode="&#x3b3;" 
 />
    <glyph glyph-name="delta" unicode="&#x3b4;" 
 />
    <glyph glyph-name="epsilon" unicode="&#x3b5;" 
 />
    <glyph glyph-name="zeta" unicode="&#x3b6;" 
 />
    <glyph glyph-name="eta" unicode="&#x3b7;" 
 />
    <glyph glyph-name="theta" unicode="&#x3b8;" 
 />
    <glyph glyph-name="theta" unicode="&#x473;" 
 />
    <glyph glyph-name="iota" unicode="&#x3b9;" 
 />
    <glyph glyph-name="kappa" unicode="&#x3ba;" 
 />
    <glyph glyph-name="lambda" unicode="&#x3bb;" 
 />
    <glyph glyph-name="mu" unicode="&#x3bc;" 
 />
    <glyph glyph-name="nu" unicode="&#x3bd;" 
 />
    <glyph glyph-name="xi" unicode="&#x3be;" 
 />
    <glyph glyph-name="omicron" unicode="&#x3bf;" 
 />
    <glyph glyph-name="pi" unicode="&#x3c0;" 
 />
    <glyph glyph-name="rho" unicode="&#x3c1;" 
 />
    <glyph glyph-name="sigma1" unicode="&#x3c2;" 
 />
    <glyph glyph-name="sigma" unicode="&#x3c3;" 
 />
    <glyph glyph-name="tau" unicode="&#x3c4;" 
 />
    <glyph glyph-name="upsilon" unicode="&#x3c5;" 
 />
    <glyph glyph-name="phi" unicode="&#x3c6;" 
 />
    <glyph glyph-name="chi" unicode="&#x3c7;" 
 />
    <glyph glyph-name="psi" unicode="&#x3c8;" 
 />
    <glyph glyph-name="psi" unicode="&#x471;" 
 />
    <glyph glyph-name="omega" unicode="&#x3c9;" 
 />
    <glyph glyph-name="iotadieresis" unicode="&#x3ca;" 
 />
    <glyph glyph-name="upsilondieresis" unicode="&#x3cb;" 
 />
    <glyph glyph-name="omicrontonos" unicode="&#x3cc;" 
 />
    <glyph glyph-name="upsilontonos" unicode="&#x3cd;" 
 />
    <glyph glyph-name="omegatonos" unicode="&#x3ce;" 
 />
    <glyph glyph-name="afii10023" unicode="&#x401;" 
 />
    <glyph glyph-name="afii10051" unicode="&#x402;" 
 />
    <glyph glyph-name="afii10052" unicode="&#x403;" 
 />
    <glyph glyph-name="afii10053" unicode="&#x404;" 
 />
    <glyph glyph-name="afii10054" unicode="&#x405;" 
 />
    <glyph glyph-name="afii10055" unicode="&#x406;" 
 />
    <glyph glyph-name="afii10056" unicode="&#x407;" 
 />
    <glyph glyph-name="afii10057" unicode="&#x408;" 
 />
    <glyph glyph-name="afii10058" unicode="&#x409;" 
 />
    <glyph glyph-name="afii10059" unicode="&#x40a;" 
 />
    <glyph glyph-name="afii10060" unicode="&#x40b;" 
 />
    <glyph glyph-name="afii10061" unicode="&#x40c;" 
 />
    <glyph glyph-name="afii10062" unicode="&#x40e;" 
 />
    <glyph glyph-name="afii10145" unicode="&#x40f;" 
 />
    <glyph glyph-name="afii10017" unicode="&#x410;" 
 />
    <glyph glyph-name="afii10018" unicode="&#x411;" 
 />
    <glyph glyph-name="afii10019" unicode="&#x412;" 
 />
    <glyph glyph-name="afii10020" unicode="&#x413;" 
 />
    <glyph glyph-name="afii10021" unicode="&#x414;" 
 />
    <glyph glyph-name="afii10022" unicode="&#x415;" 
 />
    <glyph glyph-name="afii10024" unicode="&#x416;" 
 />
    <glyph glyph-name="afii10025" unicode="&#x417;" 
 />
    <glyph glyph-name="afii10026" unicode="&#x418;" 
 />
    <glyph glyph-name="afii10027" unicode="&#x419;" 
 />
    <glyph glyph-name="afii10028" unicode="&#x41a;" 
 />
    <glyph glyph-name="afii10029" unicode="&#x41b;" 
 />
    <glyph glyph-name="afii10030" unicode="&#x41c;" 
 />
    <glyph glyph-name="afii10031" unicode="&#x41d;" 
 />
    <glyph glyph-name="afii10032" unicode="&#x41e;" 
 />
    <glyph glyph-name="afii10033" unicode="&#x41f;" 
 />
    <glyph glyph-name="afii10034" unicode="&#x420;" 
 />
    <glyph glyph-name="afii10035" unicode="&#x421;" 
 />
    <glyph glyph-name="afii10036" unicode="&#x422;" 
 />
    <glyph glyph-name="afii10037" unicode="&#x423;" 
 />
    <glyph glyph-name="afii10038" unicode="&#x424;" 
 />
    <glyph glyph-name="afii10039" unicode="&#x425;" 
 />
    <glyph glyph-name="afii10040" unicode="&#x426;" 
 />
    <glyph glyph-name="afii10041" unicode="&#x427;" 
 />
    <glyph glyph-name="afii10042" unicode="&#x428;" 
 />
    <glyph glyph-name="afii10043" unicode="&#x429;" 
 />
    <glyph glyph-name="afii10044" unicode="&#x42a;" 
 />
    <glyph glyph-name="afii10045" unicode="&#x42b;" 
 />
    <glyph glyph-name="afii10046" unicode="&#x42c;" 
 />
    <glyph glyph-name="afii10047" unicode="&#x42d;" 
 />
    <glyph glyph-name="afii10048" unicode="&#x42e;" 
 />
    <glyph glyph-name="afii10049" unicode="&#x42f;" 
 />
    <glyph glyph-name="afii10065" unicode="&#x430;" 
 />
    <glyph glyph-name="afii10066" unicode="&#x431;" 
 />
    <glyph glyph-name="afii10067" unicode="&#x432;" 
 />
    <glyph glyph-name="afii10068" unicode="&#x433;" 
 />
    <glyph glyph-name="afii10069" unicode="&#x434;" 
 />
    <glyph glyph-name="afii10070" unicode="&#x435;" 
 />
    <glyph glyph-name="afii10072" unicode="&#x436;" 
 />
    <glyph glyph-name="afii10073" unicode="&#x437;" 
 />
    <glyph glyph-name="afii10074" unicode="&#x438;" 
 />
    <glyph glyph-name="afii10075" unicode="&#x439;" 
 />
    <glyph glyph-name="afii10076" unicode="&#x43a;" 
 />
    <glyph glyph-name="afii10077" unicode="&#x43b;" 
 />
    <glyph glyph-name="afii10078" unicode="&#x43c;" 
 />
    <glyph glyph-name="afii10079" unicode="&#x43d;" 
 />
    <glyph glyph-name="afii10080" unicode="&#x43e;" 
 />
    <glyph glyph-name="afii10081" unicode="&#x43f;" 
 />
    <glyph glyph-name="afii10082" unicode="&#x440;" 
 />
    <glyph glyph-name="afii10083" unicode="&#x441;" 
 />
    <glyph glyph-name="afii10084" unicode="&#x442;" 
 />
    <glyph glyph-name="afii10085" unicode="&#x443;" 
 />
    <glyph glyph-name="afii10086" unicode="&#x444;" 
 />
    <glyph glyph-name="afii10087" unicode="&#x445;" 
 />
    <glyph glyph-name="afii10088" unicode="&#x446;" 
 />
    <glyph glyph-name="afii10089" unicode="&#x447;" 
 />
    <glyph glyph-name="afii10090" unicode="&#x448;" 
 />
    <glyph glyph-name="afii10091" unicode="&#x449;" 
 />
    <glyph glyph-name="afii10092" unicode="&#x44a;" 
 />
    <glyph glyph-name="afii10093" unicode="&#x44b;" 
 />
    <glyph glyph-name="afii10094" unicode="&#x44c;" 
 />
    <glyph glyph-name="afii10095" unicode="&#x44d;" 
 />
    <glyph glyph-name="afii10096" unicode="&#x44e;" 
 />
    <glyph glyph-name="afii10097" unicode="&#x44f;" 
 />
    <glyph glyph-name="afii10071" unicode="&#x451;" 
 />
    <glyph glyph-name="afii10099" unicode="&#x452;" 
 />
    <glyph glyph-name="afii10100" unicode="&#x453;" 
 />
    <glyph glyph-name="afii10101" unicode="&#x454;" 
 />
    <glyph glyph-name="afii10102" unicode="&#x455;" 
 />
    <glyph glyph-name="afii10103" unicode="&#x456;" 
 />
    <glyph glyph-name="afii10104" unicode="&#x457;" 
 />
    <glyph glyph-name="afii10105" unicode="&#x458;" 
 />
    <glyph glyph-name="afii10106" unicode="&#x459;" 
 />
    <glyph glyph-name="afii10107" unicode="&#x45a;" 
 />
    <glyph glyph-name="afii10108" unicode="&#x45b;" 
 />
    <glyph glyph-name="afii10109" unicode="&#x45c;" 
 />
    <glyph glyph-name="afii10110" unicode="&#x45e;" 
 />
    <glyph glyph-name="afii10193" unicode="&#x45f;" 
 />
    <glyph glyph-name="afii10050" unicode="&#x490;" 
 />
    <glyph glyph-name="afii10098" unicode="&#x491;" 
 />
    <glyph glyph-name="Wgrave" unicode="&#x1e80;" 
 />
    <glyph glyph-name="wgrave" unicode="&#x1e81;" 
 />
    <glyph glyph-name="Wacute" unicode="&#x1e82;" 
 />
    <glyph glyph-name="wacute" unicode="&#x1e83;" 
 />
    <glyph glyph-name="Wdieresis" unicode="&#x1e84;" 
 />
    <glyph glyph-name="wdieresis" unicode="&#x1e85;" 
 />
    <glyph glyph-name="Ygrave" unicode="&#x1ef2;" 
 />
    <glyph glyph-name="ygrave" unicode="&#x1ef3;" 
 />
    <glyph glyph-name="endash" unicode="&#x2013;" horiz-adv-x="267" 
d="M227 268q0 -13 -12 -13h-160q-12 0 -12 13v91q0 12 12 12h160q12 0 12 -12v-91z" />
    <glyph glyph-name="emdash" unicode="&#x2014;" horiz-adv-x="391" 
d="M350 267q0 -13 -19 -13h-261q-19 0 -19 13v93q0 13 19 13h261q19 0 19 -13v-93z" />
    <glyph glyph-name="afii00208" unicode="&#x2015;" horiz-adv-x="515" 
d="M463 267q0 -13 -27 -13h-353q-26 0 -26 13v93q0 13 26 13h353q27 0 27 -13v-93z" />
    <glyph glyph-name="underscoredbl" unicode="&#x2017;" 
 />
    <glyph glyph-name="quoteleft" unicode="&#x2018;" horiz-adv-x="315" 
d="M40 707q0 -47 16 -82q10 -21 47 -69q10 -16 32 -44q6 -8 17 -8h56q19 0 19 15q0 10 -14 40q-9 20 -19 41h50q20 0 33 15.5t13 35.5v133q0 20 -13 35.5t-33 15.5h-158q-20 0 -33 -15.5t-13 -35.5v-77z" />
    <glyph glyph-name="quoteright" unicode="&#x2019;" horiz-adv-x="295" 
d="M268 707q0 -47 -17 -82q-10 -21 -46 -69q-10 -16 -32 -44q-7 -8 -18 -8h-55q-19 0 -19 15q0 10 13 40q10 20 19 41h-49q-20 0 -33 15.5t-13 35.5v133q0 20 13 35.5t33 15.5h158q20 0 33 -15.5t13 -35.5v-77z" />
    <glyph glyph-name="quotesinglbase" unicode="&#x201a;" 
 />
    <glyph glyph-name="quotereversed" unicode="&#x201b;" 
 />
    <glyph glyph-name="quotedblleft" unicode="&#x201c;" horiz-adv-x="627" 
d="M40 707q0 -47 16 -82q10 -21 47 -69q10 -16 32 -44q6 -8 17 -8h56q19 0 19 15q0 10 -14 40q-9 20 -19 41h50q20 0 33 15.5t13 35.5v133q0 20 -13 35.5t-33 15.5h-158q-20 0 -33 -15.5t-13 -35.5v-77zM340 707q0 -47 16 -82q10 -21 47 -69q10 -16 32 -44q6 -8 17 -8h56
q19 0 19 15q0 10 -14 40q-9 20 -19 41h50q20 0 33 15.5t13 35.5v133q0 20 -13 35.5t-33 15.5h-158q-20 0 -33 -15.5t-13 -35.5v-77z" />
    <glyph glyph-name="quotedblright" unicode="&#x201d;" horiz-adv-x="630" 
d="M268 707q0 -47 -17 -82q-10 -21 -46 -69q-10 -16 -32 -44q-7 -8 -18 -8h-55q-19 0 -19 15q0 10 13 40q10 20 19 41h-49q-20 0 -33 15.5t-13 35.5v133q0 20 13 35.5t33 15.5h158q20 0 33 -15.5t13 -35.5v-77zM568 707q0 -47 -17 -82q-10 -21 -46 -69q-10 -16 -32 -44
q-7 -8 -18 -8h-55q-19 0 -19 15q0 10 13 40q10 20 19 41h-49q-20 0 -33 15.5t-13 35.5v133q0 20 13 35.5t33 15.5h158q20 0 33 -15.5t13 -35.5v-77z" />
    <glyph glyph-name="quotedblbase" unicode="&#x201e;" 
 />
    <glyph glyph-name="dagger" unicode="&#x2020;" 
 />
    <glyph glyph-name="daggerdbl" unicode="&#x2021;" 
 />
    <glyph glyph-name="bullet" unicode="&#x2022;" horiz-adv-x="479" 
d="M456 446l-115 -102l38 -149l-133 78l-130 -82l33 150l-118 98l153 15l56 143l62 -141z" />
    <glyph glyph-name="ellipsis" unicode="&#x2026;" horiz-adv-x="850" 
d="M268 51q0 -20 -13 -35.5t-33 -15.5h-158q-20 0 -33 15.5t-13 35.5v133q0 20 13 35.5t33 15.5h158q20 0 33 -15.5t13 -35.5v-133zM544 51q0 -20 -13 -35.5t-33 -15.5h-158q-20 0 -33 15.5t-13 35.5v133q0 20 13 35.5t33 15.5h158q20 0 33 -15.5t13 -35.5v-133zM820 51
q0 -20 -13 -35.5t-33 -15.5h-158q-20 0 -33 15.5t-13 35.5v133q0 20 13 35.5t33 15.5h158q20 0 33 -15.5t13 -35.5v-133z" />
    <glyph glyph-name="glyph4" horiz-adv-x="1057" 
 />
    <glyph glyph-name="glyph5" horiz-adv-x="1057" 
 />
    <glyph glyph-name="glyph6" horiz-adv-x="1284" 
 />
    <glyph glyph-name="glyph7" horiz-adv-x="1066" 
 />
    <glyph glyph-name="glyph8" horiz-adv-x="1066" 
 />
    <glyph glyph-name="glyph96" horiz-adv-x="1682" 
 />
    <glyph glyph-name="glyph97" horiz-adv-x="1682" 
 />
    <glyph glyph-name="glyph98" horiz-adv-x="1122" 
 />
    <glyph glyph-name="glyph99" horiz-adv-x="1368" 
 />
    <glyph glyph-name="glyph100" horiz-adv-x="1233" 
 />
    <glyph glyph-name="glyph101" horiz-adv-x="1254" 
 />
    <glyph glyph-name="glyph102" horiz-adv-x="1682" 
 />
    <glyph glyph-name="glyph103" horiz-adv-x="1682" 
 />
    <glyph glyph-name="glyph104" horiz-adv-x="1682" 
 />
    <glyph glyph-name="glyph105" horiz-adv-x="1682" 
 />
    <glyph glyph-name="glyph106" horiz-adv-x="1682" 
 />
    <glyph glyph-name="glyph107" horiz-adv-x="1682" 
 />
    <glyph glyph-name="glyph108" horiz-adv-x="1122" 
 />
    <glyph glyph-name="glyph109" horiz-adv-x="1122" 
 />
    <glyph glyph-name="glyph110" horiz-adv-x="1122" 
 />
    <glyph glyph-name="glyph111" horiz-adv-x="1122" 
 />
    <glyph glyph-name="glyph112" horiz-adv-x="489" 
 />
    <glyph glyph-name="glyph113" horiz-adv-x="489" 
 />
    <glyph glyph-name="glyph114" horiz-adv-x="489" 
 />
    <glyph glyph-name="glyph115" horiz-adv-x="489" 
 />
    <glyph glyph-name="glyph116" horiz-adv-x="1368" 
 />
    <glyph glyph-name="glyph117" horiz-adv-x="1233" 
 />
    <glyph glyph-name="glyph118" horiz-adv-x="1233" 
 />
    <glyph glyph-name="glyph119" horiz-adv-x="1233" 
 />
    <glyph glyph-name="glyph120" horiz-adv-x="1233" 
 />
    <glyph glyph-name="glyph121" horiz-adv-x="1233" 
 />
    <glyph glyph-name="glyph122" horiz-adv-x="1254" 
 />
    <glyph glyph-name="glyph123" horiz-adv-x="1254" 
 />
    <glyph glyph-name="glyph124" horiz-adv-x="1254" 
 />
    <glyph glyph-name="glyph125" horiz-adv-x="1254" 
 />
    <glyph glyph-name="glyph138" 
 />
    <glyph glyph-name="glyph349" 
 />
    <glyph glyph-name="glyph366" 
 />
    <glyph glyph-name="glyph439" 
 />
    <glyph glyph-name="glyph534" 
 />
    <glyph glyph-name="glyph543" 
 />
    <glyph glyph-name="glyph555" 
 />
    </font>
</defs>
</svg>
